%TF.GenerationSoftware,KiCad,Pcbnew,9.0.3*%
%TF.CreationDate,2026-03-08T11:07:04-03:00*%
%TF.ProjectId,WhaleShark,5768616c-6553-4686-9172-6b2e6b696361,rev?*%
%TF.SameCoordinates,Original*%
%TF.FileFunction,Plated,1,2,PTH,Mixed*%
%TF.FilePolarity,Positive*%
%FSLAX46Y46*%
G04 Gerber Fmt 4.6, Leading zero omitted, Abs format (unit mm)*
G04 Created by KiCad (PCBNEW 9.0.3) date 2026-03-08 11:07:04*
%MOMM*%
%LPD*%
G01*
G04 APERTURE LIST*
%TA.AperFunction,ViaDrill*%
%ADD10C,0.300000*%
%TD*%
%TA.AperFunction,ComponentDrill*%
%ADD11C,0.800000*%
%TD*%
%TA.AperFunction,ComponentDrill*%
%ADD12C,0.900000*%
%TD*%
%TA.AperFunction,ComponentDrill*%
%ADD13C,1.000000*%
%TD*%
G04 aperture for slot hole*
%TA.AperFunction,ComponentDrill*%
%ADD14C,1.300000*%
%TD*%
%TA.AperFunction,ComponentDrill*%
%ADD15C,1.400000*%
%TD*%
G04 APERTURE END LIST*
D10*
X67400000Y-114920000D03*
X71200000Y-83280000D03*
X71480000Y-80830000D03*
X77130000Y-77570000D03*
X78730000Y-93125000D03*
X78750000Y-101540000D03*
X79263464Y-74031993D03*
X80410000Y-140500000D03*
X80455000Y-143580000D03*
X80455000Y-146500000D03*
X80455000Y-149650000D03*
X80455000Y-152670000D03*
X80455000Y-155770000D03*
X80455000Y-158810000D03*
X81880000Y-103160000D03*
X82867500Y-141990000D03*
X82867500Y-145030000D03*
X82867500Y-148070000D03*
X82867500Y-154150000D03*
X82867500Y-157190000D03*
X84180000Y-109300000D03*
X84325532Y-93299000D03*
X84430000Y-103125000D03*
X84580000Y-133650000D03*
X84580000Y-140100000D03*
X84580000Y-143330000D03*
X84580000Y-149240000D03*
X84580000Y-152730000D03*
X84580000Y-158890000D03*
X85870000Y-155750000D03*
X85880000Y-146390000D03*
X85905954Y-91842918D03*
X87055000Y-138860000D03*
X87055000Y-141900000D03*
X87055000Y-147980000D03*
X87167500Y-157320000D03*
X87192500Y-101500000D03*
X88750000Y-93425000D03*
X88790000Y-152700000D03*
X88790000Y-158860000D03*
X88867500Y-149310000D03*
X89430000Y-66500000D03*
X89495000Y-130550000D03*
X89564000Y-127412000D03*
X89564000Y-128260527D03*
X90067500Y-140425000D03*
X90190000Y-155770000D03*
X90250000Y-143410000D03*
X90400000Y-146700000D03*
X90765000Y-130550000D03*
X90766000Y-126450000D03*
X91100000Y-94625000D03*
X91155000Y-70100000D03*
X91342500Y-142085000D03*
X91342500Y-148165000D03*
X91342500Y-157285000D03*
X92035000Y-121250000D03*
X92280000Y-116070000D03*
X92350000Y-81334000D03*
X92520000Y-60530000D03*
X92863235Y-134766765D03*
X92880000Y-149480000D03*
X92880000Y-152490000D03*
X93305000Y-130550000D03*
X94100000Y-155590000D03*
X94250000Y-158690000D03*
X94270000Y-146650000D03*
X94450000Y-140325000D03*
X94470000Y-143540000D03*
X95355000Y-148085000D03*
X95355000Y-157205000D03*
X95845000Y-130550000D03*
X96379751Y-127499751D03*
X96520000Y-152400000D03*
X96880000Y-143310000D03*
X97115000Y-121250000D03*
X97329237Y-130764236D03*
X98080000Y-158590000D03*
X98130000Y-146160000D03*
X98220000Y-149300000D03*
X98290000Y-155590000D03*
X98330000Y-136701000D03*
X98400000Y-140300000D03*
X99217500Y-157135000D03*
X99267500Y-147800000D03*
X99655000Y-121250000D03*
X99655000Y-130550000D03*
X100388477Y-138449506D03*
X100790000Y-152160000D03*
X100867500Y-143110000D03*
X101032369Y-117567631D03*
X102067500Y-149200000D03*
X102470000Y-158460000D03*
X102560000Y-146230000D03*
X102570000Y-155350000D03*
X102575000Y-140225000D03*
X103160000Y-96710000D03*
X103342500Y-141720000D03*
X103517500Y-147785000D03*
X103517500Y-150825000D03*
X103517500Y-156905000D03*
X103750000Y-92870000D03*
X103942488Y-87538264D03*
X104420000Y-136100000D03*
X104810000Y-95850000D03*
X105155000Y-88775000D03*
X105906719Y-124143281D03*
X106067500Y-149200000D03*
X106110000Y-143130000D03*
X106220000Y-146160000D03*
X106290000Y-152360000D03*
X106325000Y-140250000D03*
X106560000Y-155460000D03*
X106650000Y-158600000D03*
X107240000Y-126360000D03*
X109620000Y-134320000D03*
X110220000Y-135540000D03*
X110870000Y-136940000D03*
X111000000Y-109620000D03*
X111310000Y-83880000D03*
X111470000Y-138160000D03*
X112690000Y-94440000D03*
X114616000Y-94061500D03*
X114854000Y-111772288D03*
X118510000Y-108360000D03*
X118855000Y-156915000D03*
D11*
%TO.C,C3*%
X79232651Y-85225000D03*
X82732651Y-85225000D03*
%TO.C,SW1*%
X122905000Y-154760000D03*
X122905000Y-161010000D03*
D12*
%TO.C,Flux1*%
X58155000Y-146150000D03*
X58155000Y-148650000D03*
X58155000Y-150650000D03*
X58155000Y-153150000D03*
%TO.C,ESP1*%
X58180000Y-129255000D03*
X58180000Y-131755000D03*
X58180000Y-133755000D03*
X58180000Y-136255000D03*
D13*
%TO.C,Turbidity_Conn1*%
X60805000Y-52925000D03*
X60805000Y-55425000D03*
X60805000Y-57925000D03*
%TO.C,YF-S201_Conn1*%
X60805000Y-64600000D03*
X60805000Y-67100000D03*
X60805000Y-69600000D03*
%TO.C,Expansion1*%
X60805000Y-76050000D03*
X60805000Y-78550000D03*
X60805000Y-81050000D03*
X60805000Y-83550000D03*
%TO.C,Minymi_WaterLevel1*%
X60805000Y-89025000D03*
X60805000Y-91525000D03*
X60805000Y-94025000D03*
%TO.C,DS18B20_Conn1*%
X60805000Y-100875000D03*
X60805000Y-103375000D03*
X60805000Y-105875000D03*
%TO.C,DRV8825_Conn1*%
X60805000Y-112450000D03*
X60805000Y-114950000D03*
X60805000Y-117450000D03*
X60805000Y-119950000D03*
%TO.C,C5*%
X102355000Y-59292677D03*
X102355000Y-64292677D03*
%TO.C,ESP32Conn1*%
X114065000Y-74265000D03*
X114065000Y-76805000D03*
X114065000Y-79345000D03*
X114065000Y-81885000D03*
X114065000Y-84425000D03*
X114065000Y-86965000D03*
%TO.C,FluxConn1*%
X114065000Y-92305000D03*
X114065000Y-94845000D03*
X114065000Y-97385000D03*
X114065000Y-99925000D03*
X114065000Y-102465000D03*
X114065000Y-105005000D03*
X114065000Y-107545000D03*
X114065000Y-110085000D03*
%TO.C,WaterPh_Conn1*%
X115945000Y-57090000D03*
X115945000Y-59590000D03*
X115945000Y-62090000D03*
X115945000Y-64590000D03*
%TO.C,ESP32Conn1*%
X116605000Y-74265000D03*
X116605000Y-76805000D03*
X116605000Y-79345000D03*
X116605000Y-81885000D03*
X116605000Y-84425000D03*
X116605000Y-86965000D03*
%TO.C,FluxConn1*%
X116605000Y-92305000D03*
X116605000Y-94845000D03*
X116605000Y-97385000D03*
X116605000Y-99925000D03*
X116605000Y-102465000D03*
X116605000Y-105005000D03*
X116605000Y-107545000D03*
X116605000Y-110085000D03*
D14*
%TO.C,Flux1*%
X59255000Y-143080000D02*
X58255000Y-143080000D01*
X58255000Y-156220000D02*
X59255000Y-156220000D01*
%TO.C,ESP1*%
X59280000Y-126185000D02*
X58280000Y-126185000D01*
X58280000Y-139325000D02*
X59280000Y-139325000D01*
%TO.C,Flux1*%
X62935000Y-150150000D02*
X62935000Y-149150000D01*
%TO.C,ESP1*%
X62960000Y-133255000D02*
X62960000Y-132255000D01*
D15*
%TO.C,J4*%
X66480000Y-43010000D03*
X71480000Y-43010000D03*
%TO.C,J1*%
X77720000Y-43010000D03*
X82720000Y-43010000D03*
%TO.C,J3*%
X89067500Y-43010000D03*
X94067500Y-43010000D03*
%TO.C,J2*%
X100092500Y-43010000D03*
X105092500Y-43010000D03*
%TO.C,J5*%
X112042500Y-43010000D03*
X117042500Y-43010000D03*
M02*
