%TF.GenerationSoftware,KiCad,Pcbnew,9.0.3*%
%TF.CreationDate,2026-03-08T11:06:46-03:00*%
%TF.ProjectId,WhaleShark,5768616c-6553-4686-9172-6b2e6b696361,rev?*%
%TF.SameCoordinates,Original*%
%TF.FileFunction,Paste,Top*%
%TF.FilePolarity,Positive*%
%FSLAX46Y46*%
G04 Gerber Fmt 4.6, Leading zero omitted, Abs format (unit mm)*
G04 Created by KiCad (PCBNEW 9.0.3) date 2026-03-08 11:06:46*
%MOMM*%
%LPD*%
G01*
G04 APERTURE LIST*
G04 Aperture macros list*
%AMRoundRect*
0 Rectangle with rounded corners*
0 $1 Rounding radius*
0 $2 $3 $4 $5 $6 $7 $8 $9 X,Y pos of 4 corners*
0 Add a 4 corners polygon primitive as box body*
4,1,4,$2,$3,$4,$5,$6,$7,$8,$9,$2,$3,0*
0 Add four circle primitives for the rounded corners*
1,1,$1+$1,$2,$3*
1,1,$1+$1,$4,$5*
1,1,$1+$1,$6,$7*
1,1,$1+$1,$8,$9*
0 Add four rect primitives between the rounded corners*
20,1,$1+$1,$2,$3,$4,$5,0*
20,1,$1+$1,$4,$5,$6,$7,0*
20,1,$1+$1,$6,$7,$8,$9,0*
20,1,$1+$1,$8,$9,$2,$3,0*%
G04 Aperture macros list end*
%ADD10RoundRect,0.243750X-0.243750X-0.456250X0.243750X-0.456250X0.243750X0.456250X-0.243750X0.456250X0*%
%ADD11RoundRect,0.250000X0.450000X-0.262500X0.450000X0.262500X-0.450000X0.262500X-0.450000X-0.262500X0*%
%ADD12RoundRect,0.250000X-1.000000X-0.650000X1.000000X-0.650000X1.000000X0.650000X-1.000000X0.650000X0*%
%ADD13RoundRect,0.150000X0.150000X-0.875000X0.150000X0.875000X-0.150000X0.875000X-0.150000X-0.875000X0*%
%ADD14RoundRect,0.250000X-0.262500X-0.450000X0.262500X-0.450000X0.262500X0.450000X-0.262500X0.450000X0*%
%ADD15RoundRect,0.250000X0.650000X-1.000000X0.650000X1.000000X-0.650000X1.000000X-0.650000X-1.000000X0*%
%ADD16RoundRect,0.250000X-0.250000X-0.475000X0.250000X-0.475000X0.250000X0.475000X-0.250000X0.475000X0*%
%ADD17R,1.900000X1.000000*%
%ADD18RoundRect,0.250000X-0.650000X0.325000X-0.650000X-0.325000X0.650000X-0.325000X0.650000X0.325000X0*%
%ADD19RoundRect,0.250000X1.450000X-0.312500X1.450000X0.312500X-1.450000X0.312500X-1.450000X-0.312500X0*%
%ADD20RoundRect,0.250000X2.025000X2.375000X-2.025000X2.375000X-2.025000X-2.375000X2.025000X-2.375000X0*%
%ADD21RoundRect,0.250000X2.050000X0.300000X-2.050000X0.300000X-2.050000X-0.300000X2.050000X-0.300000X0*%
%ADD22RoundRect,0.250000X1.000000X0.650000X-1.000000X0.650000X-1.000000X-0.650000X1.000000X-0.650000X0*%
%ADD23RoundRect,0.150000X-0.512500X-0.150000X0.512500X-0.150000X0.512500X0.150000X-0.512500X0.150000X0*%
%ADD24RoundRect,0.250000X0.262500X0.450000X-0.262500X0.450000X-0.262500X-0.450000X0.262500X-0.450000X0*%
%ADD25RoundRect,0.100000X0.100000X-0.637500X0.100000X0.637500X-0.100000X0.637500X-0.100000X-0.637500X0*%
%ADD26R,2.400000X1.500000*%
%ADD27RoundRect,0.250000X-0.450000X0.262500X-0.450000X-0.262500X0.450000X-0.262500X0.450000X0.262500X0*%
%ADD28RoundRect,0.250000X-0.312500X-1.450000X0.312500X-1.450000X0.312500X1.450000X-0.312500X1.450000X0*%
%ADD29RoundRect,0.250000X0.650000X-0.325000X0.650000X0.325000X-0.650000X0.325000X-0.650000X-0.325000X0*%
G04 APERTURE END LIST*
D10*
%TO.C,D46*%
X85180000Y-144940000D03*
X87055000Y-144940000D03*
%TD*%
%TO.C,D65*%
X76912500Y-154385000D03*
X78787500Y-154385000D03*
%TD*%
%TO.C,D53*%
X80992500Y-141990000D03*
X82867500Y-141990000D03*
%TD*%
D11*
%TO.C,R6*%
X121130000Y-83140000D03*
X121130000Y-81315000D03*
%TD*%
D12*
%TO.C,D1*%
X93005000Y-85725000D03*
X97005000Y-85725000D03*
%TD*%
D13*
%TO.C,U3*%
X88225000Y-130550000D03*
X89495000Y-130550000D03*
X90765000Y-130550000D03*
X92035000Y-130550000D03*
X93305000Y-130550000D03*
X94575000Y-130550000D03*
X95845000Y-130550000D03*
X97115000Y-130550000D03*
X98385000Y-130550000D03*
X99655000Y-130550000D03*
X100925000Y-130550000D03*
X102195000Y-130550000D03*
X102195000Y-121250000D03*
X100925000Y-121250000D03*
X99655000Y-121250000D03*
X98385000Y-121250000D03*
X97115000Y-121250000D03*
X95845000Y-121250000D03*
X94575000Y-121250000D03*
X93305000Y-121250000D03*
X92035000Y-121250000D03*
X90765000Y-121250000D03*
X89495000Y-121250000D03*
X88225000Y-121250000D03*
%TD*%
D10*
%TO.C,D45*%
X85180000Y-141900000D03*
X87055000Y-141900000D03*
%TD*%
%TO.C,D41*%
X89467500Y-154245000D03*
X91342500Y-154245000D03*
%TD*%
%TO.C,D54*%
X80992500Y-145030000D03*
X82867500Y-145030000D03*
%TD*%
D14*
%TO.C,R17*%
X120180000Y-76390000D03*
X122005000Y-76390000D03*
%TD*%
D10*
%TO.C,D64*%
X76912500Y-151345000D03*
X78787500Y-151345000D03*
%TD*%
D15*
%TO.C,D3*%
X95105000Y-70000000D03*
X95105000Y-66000000D03*
%TD*%
D10*
%TO.C,D57*%
X80992500Y-154150000D03*
X82867500Y-154150000D03*
%TD*%
D16*
%TO.C,C4*%
X89255000Y-70100000D03*
X91155000Y-70100000D03*
%TD*%
D10*
%TO.C,D21*%
X97392500Y-141720000D03*
X99267500Y-141720000D03*
%TD*%
%TO.C,D62*%
X76912500Y-145265000D03*
X78787500Y-145265000D03*
%TD*%
%TO.C,D26*%
X97342500Y-157135000D03*
X99217500Y-157135000D03*
%TD*%
%TO.C,D37*%
X89467500Y-142085000D03*
X91342500Y-142085000D03*
%TD*%
%TO.C,D17*%
X101642500Y-153865000D03*
X103517500Y-153865000D03*
%TD*%
%TO.C,D25*%
X97392500Y-153880000D03*
X99267500Y-153880000D03*
%TD*%
%TO.C,D28*%
X93480000Y-138965000D03*
X95355000Y-138965000D03*
%TD*%
D17*
%TO.C,SW1*%
X118855000Y-160915000D03*
X118855000Y-158915000D03*
X118855000Y-156915000D03*
%TD*%
D10*
%TO.C,D55*%
X80992500Y-148070000D03*
X82867500Y-148070000D03*
%TD*%
%TO.C,D44*%
X85180000Y-138860000D03*
X87055000Y-138860000D03*
%TD*%
%TO.C,D12*%
X101467500Y-138680000D03*
X103342500Y-138680000D03*
%TD*%
%TO.C,D13*%
X101467500Y-141720000D03*
X103342500Y-141720000D03*
%TD*%
D11*
%TO.C,R8*%
X107405000Y-73190000D03*
X107405000Y-71365000D03*
%TD*%
D10*
%TO.C,D50*%
X85292500Y-157320000D03*
X87167500Y-157320000D03*
%TD*%
%TO.C,D38*%
X89467500Y-145125000D03*
X91342500Y-145125000D03*
%TD*%
D14*
%TO.C,R12*%
X120105000Y-93765000D03*
X121930000Y-93765000D03*
%TD*%
D10*
%TO.C,D66*%
X76912500Y-157425000D03*
X78787500Y-157425000D03*
%TD*%
%TO.C,D59*%
X81055000Y-160485000D03*
X82930000Y-160485000D03*
%TD*%
%TO.C,D4*%
X105467500Y-138695000D03*
X107342500Y-138695000D03*
%TD*%
%TO.C,D8*%
X105467500Y-150855000D03*
X107342500Y-150855000D03*
%TD*%
%TO.C,D15*%
X101642500Y-147785000D03*
X103517500Y-147785000D03*
%TD*%
%TO.C,D36*%
X89430000Y-139010000D03*
X91305000Y-139010000D03*
%TD*%
%TO.C,D34*%
X93480000Y-157205000D03*
X95355000Y-157205000D03*
%TD*%
%TO.C,D49*%
X85292500Y-154280000D03*
X87167500Y-154280000D03*
%TD*%
%TO.C,D27*%
X97480000Y-160410000D03*
X99355000Y-160410000D03*
%TD*%
D18*
%TO.C,C8*%
X69500000Y-148200000D03*
X69500000Y-151150000D03*
%TD*%
D10*
%TO.C,D9*%
X105467500Y-153895000D03*
X107342500Y-153895000D03*
%TD*%
D14*
%TO.C,R14*%
X89105000Y-76850000D03*
X90930000Y-76850000D03*
%TD*%
D18*
%TO.C,C2*%
X78730000Y-90175000D03*
X78730000Y-93125000D03*
%TD*%
D10*
%TO.C,D51*%
X85292500Y-160360000D03*
X87167500Y-160360000D03*
%TD*%
%TO.C,D23*%
X97392500Y-147800000D03*
X99267500Y-147800000D03*
%TD*%
D14*
%TO.C,R13*%
X107730000Y-79340000D03*
X109555000Y-79340000D03*
%TD*%
D19*
%TO.C,F2*%
X69430000Y-140200000D03*
X69430000Y-135925000D03*
%TD*%
D20*
%TO.C,U2*%
X82705000Y-65875000D03*
X82705000Y-60325000D03*
X77855000Y-65875000D03*
X77855000Y-60325000D03*
D21*
X89430000Y-66500000D03*
X89430000Y-64800000D03*
X89430000Y-63100000D03*
X89430000Y-61400000D03*
X89430000Y-59700000D03*
%TD*%
D10*
%TO.C,D7*%
X105467500Y-147815000D03*
X107342500Y-147815000D03*
%TD*%
%TO.C,D24*%
X97392500Y-150840000D03*
X99267500Y-150840000D03*
%TD*%
%TO.C,D22*%
X97392500Y-144760000D03*
X99267500Y-144760000D03*
%TD*%
D22*
%TO.C,D2*%
X94667500Y-53675000D03*
X90667500Y-53675000D03*
%TD*%
D10*
%TO.C,D30*%
X93480000Y-145045000D03*
X95355000Y-145045000D03*
%TD*%
D23*
%TO.C,U1*%
X84680000Y-91300000D03*
X84680000Y-92250000D03*
X84680000Y-93200000D03*
X86955000Y-93200000D03*
X86955000Y-91300000D03*
%TD*%
D24*
%TO.C,R18*%
X96580000Y-116325000D03*
X94755000Y-116325000D03*
%TD*%
D10*
%TO.C,D67*%
X76912500Y-160465000D03*
X78787500Y-160465000D03*
%TD*%
D19*
%TO.C,F3*%
X79480000Y-132750000D03*
X79480000Y-128475000D03*
%TD*%
D10*
%TO.C,D63*%
X76912500Y-148305000D03*
X78787500Y-148305000D03*
%TD*%
D25*
%TO.C,U4*%
X101855000Y-94500000D03*
X102505000Y-94500000D03*
X103155000Y-94500000D03*
X103805000Y-94500000D03*
X104455000Y-94500000D03*
X105105000Y-94500000D03*
X105755000Y-94500000D03*
X105755000Y-88775000D03*
X105105000Y-88775000D03*
X104455000Y-88775000D03*
X103805000Y-88775000D03*
X103155000Y-88775000D03*
X102505000Y-88775000D03*
X101855000Y-88775000D03*
%TD*%
D26*
%TO.C,L1*%
X101805000Y-74075000D03*
X101805000Y-68575000D03*
%TD*%
D10*
%TO.C,D10*%
X105467500Y-156935000D03*
X107342500Y-156935000D03*
%TD*%
D11*
%TO.C,R4*%
X80555000Y-76300000D03*
X80555000Y-74475000D03*
%TD*%
D10*
%TO.C,D56*%
X80992500Y-151110000D03*
X82867500Y-151110000D03*
%TD*%
%TO.C,D19*%
X101467500Y-160210000D03*
X103342500Y-160210000D03*
%TD*%
%TO.C,D40*%
X89467500Y-151205000D03*
X91342500Y-151205000D03*
%TD*%
D11*
%TO.C,R1*%
X75055000Y-104350000D03*
X75055000Y-102525000D03*
%TD*%
D27*
%TO.C,R3*%
X68855000Y-84425000D03*
X68855000Y-86250000D03*
%TD*%
D10*
%TO.C,D58*%
X80992500Y-157190000D03*
X82867500Y-157190000D03*
%TD*%
D14*
%TO.C,R15*%
X96542500Y-106500000D03*
X98367500Y-106500000D03*
%TD*%
D10*
%TO.C,D29*%
X93480000Y-142005000D03*
X95355000Y-142005000D03*
%TD*%
D14*
%TO.C,R16*%
X87192500Y-101500000D03*
X89017500Y-101500000D03*
%TD*%
D11*
%TO.C,R2*%
X69005000Y-80250000D03*
X69005000Y-78425000D03*
%TD*%
%TO.C,R11*%
X74555000Y-73487500D03*
X74555000Y-71662500D03*
%TD*%
D16*
%TO.C,C6*%
X105205000Y-84600000D03*
X107105000Y-84600000D03*
%TD*%
D10*
%TO.C,D16*%
X101642500Y-150825000D03*
X103517500Y-150825000D03*
%TD*%
%TO.C,D42*%
X89467500Y-157285000D03*
X91342500Y-157285000D03*
%TD*%
D11*
%TO.C,R5*%
X70805000Y-70287500D03*
X70805000Y-68462500D03*
%TD*%
D10*
%TO.C,D60*%
X76912500Y-139185000D03*
X78787500Y-139185000D03*
%TD*%
D11*
%TO.C,R9*%
X107030000Y-68225000D03*
X107030000Y-66400000D03*
%TD*%
D10*
%TO.C,D61*%
X76912500Y-142225000D03*
X78787500Y-142225000D03*
%TD*%
%TO.C,D11*%
X105467500Y-159975000D03*
X107342500Y-159975000D03*
%TD*%
%TO.C,D18*%
X101642500Y-156905000D03*
X103517500Y-156905000D03*
%TD*%
D11*
%TO.C,R7*%
X120955000Y-67952500D03*
X120955000Y-66127500D03*
%TD*%
%TO.C,R10*%
X74805000Y-78625000D03*
X74805000Y-76800000D03*
%TD*%
D16*
%TO.C,C7*%
X86817500Y-107535000D03*
X88717500Y-107535000D03*
%TD*%
D10*
%TO.C,D14*%
X101467500Y-144760000D03*
X103342500Y-144760000D03*
%TD*%
D28*
%TO.C,F1*%
X77267500Y-53650000D03*
X81542500Y-53650000D03*
%TD*%
D29*
%TO.C,C1*%
X68905000Y-102450000D03*
X68905000Y-99500000D03*
%TD*%
D10*
%TO.C,D5*%
X105467500Y-141735000D03*
X107342500Y-141735000D03*
%TD*%
%TO.C,D48*%
X85292500Y-151240000D03*
X87167500Y-151240000D03*
%TD*%
%TO.C,D6*%
X105467500Y-144775000D03*
X107342500Y-144775000D03*
%TD*%
%TO.C,D31*%
X93480000Y-148085000D03*
X95355000Y-148085000D03*
%TD*%
%TO.C,D35*%
X93480000Y-160245000D03*
X95355000Y-160245000D03*
%TD*%
%TO.C,D32*%
X93480000Y-151125000D03*
X95355000Y-151125000D03*
%TD*%
%TO.C,D39*%
X89467500Y-148165000D03*
X91342500Y-148165000D03*
%TD*%
%TO.C,D52*%
X80992500Y-138950000D03*
X82867500Y-138950000D03*
%TD*%
%TO.C,D43*%
X89467500Y-160325000D03*
X91342500Y-160325000D03*
%TD*%
%TO.C,D33*%
X93480000Y-154165000D03*
X95355000Y-154165000D03*
%TD*%
%TO.C,D20*%
X97392500Y-138680000D03*
X99267500Y-138680000D03*
%TD*%
%TO.C,D47*%
X85180000Y-147980000D03*
X87055000Y-147980000D03*
%TD*%
M02*
