%TF.GenerationSoftware,KiCad,Pcbnew,9.0.3*%
%TF.CreationDate,2026-03-08T11:06:46-03:00*%
%TF.ProjectId,WhaleShark,5768616c-6553-4686-9172-6b2e6b696361,rev?*%
%TF.SameCoordinates,Original*%
%TF.FileFunction,Legend,Bot*%
%TF.FilePolarity,Positive*%
%FSLAX46Y46*%
G04 Gerber Fmt 4.6, Leading zero omitted, Abs format (unit mm)*
G04 Created by KiCad (PCBNEW 9.0.3) date 2026-03-08 11:06:46*
%MOMM*%
%LPD*%
G01*
G04 APERTURE LIST*
%ADD10C,0.100000*%
%ADD11C,0.000000*%
G04 APERTURE END LIST*
D10*
X106359925Y-49713684D02*
X105836115Y-51913684D01*
X105836115Y-51913684D02*
X105417068Y-50342256D01*
X105417068Y-50342256D02*
X104998020Y-51913684D01*
X104998020Y-51913684D02*
X104474211Y-49713684D01*
X103636115Y-51913684D02*
X103636115Y-49713684D01*
X103636115Y-50761303D02*
X102378972Y-50761303D01*
X102378972Y-51913684D02*
X102378972Y-49713684D01*
X101436115Y-51285113D02*
X100388496Y-51285113D01*
X101645639Y-51913684D02*
X100912305Y-49713684D01*
X100912305Y-49713684D02*
X100178972Y-51913684D01*
X98398020Y-51913684D02*
X99445639Y-51913684D01*
X99445639Y-51913684D02*
X99445639Y-49713684D01*
X97664687Y-50761303D02*
X96931354Y-50761303D01*
X96617068Y-51913684D02*
X97664687Y-51913684D01*
X97664687Y-51913684D02*
X97664687Y-49713684D01*
X97664687Y-49713684D02*
X96617068Y-49713684D01*
X94102783Y-51808923D02*
X93788497Y-51913684D01*
X93788497Y-51913684D02*
X93264688Y-51913684D01*
X93264688Y-51913684D02*
X93055164Y-51808923D01*
X93055164Y-51808923D02*
X92950402Y-51704161D01*
X92950402Y-51704161D02*
X92845640Y-51494637D01*
X92845640Y-51494637D02*
X92845640Y-51285113D01*
X92845640Y-51285113D02*
X92950402Y-51075589D01*
X92950402Y-51075589D02*
X93055164Y-50970827D01*
X93055164Y-50970827D02*
X93264688Y-50866065D01*
X93264688Y-50866065D02*
X93683735Y-50761303D01*
X93683735Y-50761303D02*
X93893259Y-50656542D01*
X93893259Y-50656542D02*
X93998021Y-50551780D01*
X93998021Y-50551780D02*
X94102783Y-50342256D01*
X94102783Y-50342256D02*
X94102783Y-50132732D01*
X94102783Y-50132732D02*
X93998021Y-49923208D01*
X93998021Y-49923208D02*
X93893259Y-49818446D01*
X93893259Y-49818446D02*
X93683735Y-49713684D01*
X93683735Y-49713684D02*
X93159926Y-49713684D01*
X93159926Y-49713684D02*
X92845640Y-49818446D01*
X91902783Y-51913684D02*
X91902783Y-49713684D01*
X91902783Y-50761303D02*
X90645640Y-50761303D01*
X90645640Y-51913684D02*
X90645640Y-49713684D01*
X89702783Y-51285113D02*
X88655164Y-51285113D01*
X89912307Y-51913684D02*
X89178973Y-49713684D01*
X89178973Y-49713684D02*
X88445640Y-51913684D01*
X86455164Y-51913684D02*
X87188497Y-50866065D01*
X87712307Y-51913684D02*
X87712307Y-49713684D01*
X87712307Y-49713684D02*
X86874212Y-49713684D01*
X86874212Y-49713684D02*
X86664688Y-49818446D01*
X86664688Y-49818446D02*
X86559926Y-49923208D01*
X86559926Y-49923208D02*
X86455164Y-50132732D01*
X86455164Y-50132732D02*
X86455164Y-50447018D01*
X86455164Y-50447018D02*
X86559926Y-50656542D01*
X86559926Y-50656542D02*
X86664688Y-50761303D01*
X86664688Y-50761303D02*
X86874212Y-50866065D01*
X86874212Y-50866065D02*
X87712307Y-50866065D01*
X85512307Y-51913684D02*
X85512307Y-49713684D01*
X84255164Y-51913684D02*
X85198021Y-50656542D01*
X84255164Y-49713684D02*
X85512307Y-50970827D01*
X80902784Y-50761303D02*
X80588498Y-50866065D01*
X80588498Y-50866065D02*
X80483736Y-50970827D01*
X80483736Y-50970827D02*
X80378974Y-51180351D01*
X80378974Y-51180351D02*
X80378974Y-51494637D01*
X80378974Y-51494637D02*
X80483736Y-51704161D01*
X80483736Y-51704161D02*
X80588498Y-51808923D01*
X80588498Y-51808923D02*
X80798022Y-51913684D01*
X80798022Y-51913684D02*
X81636117Y-51913684D01*
X81636117Y-51913684D02*
X81636117Y-49713684D01*
X81636117Y-49713684D02*
X80902784Y-49713684D01*
X80902784Y-49713684D02*
X80693260Y-49818446D01*
X80693260Y-49818446D02*
X80588498Y-49923208D01*
X80588498Y-49923208D02*
X80483736Y-50132732D01*
X80483736Y-50132732D02*
X80483736Y-50342256D01*
X80483736Y-50342256D02*
X80588498Y-50551780D01*
X80588498Y-50551780D02*
X80693260Y-50656542D01*
X80693260Y-50656542D02*
X80902784Y-50761303D01*
X80902784Y-50761303D02*
X81636117Y-50761303D01*
X79017069Y-49713684D02*
X78598022Y-49713684D01*
X78598022Y-49713684D02*
X78388498Y-49818446D01*
X78388498Y-49818446D02*
X78178974Y-50027970D01*
X78178974Y-50027970D02*
X78074212Y-50447018D01*
X78074212Y-50447018D02*
X78074212Y-51180351D01*
X78074212Y-51180351D02*
X78178974Y-51599399D01*
X78178974Y-51599399D02*
X78388498Y-51808923D01*
X78388498Y-51808923D02*
X78598022Y-51913684D01*
X78598022Y-51913684D02*
X79017069Y-51913684D01*
X79017069Y-51913684D02*
X79226593Y-51808923D01*
X79226593Y-51808923D02*
X79436117Y-51599399D01*
X79436117Y-51599399D02*
X79540879Y-51180351D01*
X79540879Y-51180351D02*
X79540879Y-50447018D01*
X79540879Y-50447018D02*
X79436117Y-50027970D01*
X79436117Y-50027970D02*
X79226593Y-49818446D01*
X79226593Y-49818446D02*
X79017069Y-49713684D01*
X77236117Y-51285113D02*
X76188498Y-51285113D01*
X77445641Y-51913684D02*
X76712307Y-49713684D01*
X76712307Y-49713684D02*
X75978974Y-51913684D01*
X73988498Y-51913684D02*
X74721831Y-50866065D01*
X75245641Y-51913684D02*
X75245641Y-49713684D01*
X75245641Y-49713684D02*
X74407546Y-49713684D01*
X74407546Y-49713684D02*
X74198022Y-49818446D01*
X74198022Y-49818446D02*
X74093260Y-49923208D01*
X74093260Y-49923208D02*
X73988498Y-50132732D01*
X73988498Y-50132732D02*
X73988498Y-50447018D01*
X73988498Y-50447018D02*
X74093260Y-50656542D01*
X74093260Y-50656542D02*
X74198022Y-50761303D01*
X74198022Y-50761303D02*
X74407546Y-50866065D01*
X74407546Y-50866065D02*
X75245641Y-50866065D01*
X73045641Y-51913684D02*
X73045641Y-49713684D01*
X73045641Y-49713684D02*
X72521831Y-49713684D01*
X72521831Y-49713684D02*
X72207546Y-49818446D01*
X72207546Y-49818446D02*
X71998022Y-50027970D01*
X71998022Y-50027970D02*
X71893260Y-50237494D01*
X71893260Y-50237494D02*
X71788498Y-50656542D01*
X71788498Y-50656542D02*
X71788498Y-50970827D01*
X71788498Y-50970827D02*
X71893260Y-51389875D01*
X71893260Y-51389875D02*
X71998022Y-51599399D01*
X71998022Y-51599399D02*
X72207546Y-51808923D01*
X72207546Y-51808923D02*
X72521831Y-51913684D01*
X72521831Y-51913684D02*
X73045641Y-51913684D01*
X104893258Y-55455561D02*
X105626591Y-54407942D01*
X106150401Y-55455561D02*
X106150401Y-53255561D01*
X106150401Y-53255561D02*
X105312306Y-53255561D01*
X105312306Y-53255561D02*
X105102782Y-53360323D01*
X105102782Y-53360323D02*
X104998020Y-53465085D01*
X104998020Y-53465085D02*
X104893258Y-53674609D01*
X104893258Y-53674609D02*
X104893258Y-53988895D01*
X104893258Y-53988895D02*
X104998020Y-54198419D01*
X104998020Y-54198419D02*
X105102782Y-54303180D01*
X105102782Y-54303180D02*
X105312306Y-54407942D01*
X105312306Y-54407942D02*
X106150401Y-54407942D01*
X103950401Y-54303180D02*
X103217068Y-54303180D01*
X102902782Y-55455561D02*
X103950401Y-55455561D01*
X103950401Y-55455561D02*
X103950401Y-53255561D01*
X103950401Y-53255561D02*
X102902782Y-53255561D01*
X102274211Y-53255561D02*
X101540877Y-55455561D01*
X101540877Y-55455561D02*
X100807544Y-53255561D01*
X97664688Y-54303180D02*
X97350402Y-54407942D01*
X97350402Y-54407942D02*
X97245640Y-54512704D01*
X97245640Y-54512704D02*
X97140878Y-54722228D01*
X97140878Y-54722228D02*
X97140878Y-55036514D01*
X97140878Y-55036514D02*
X97245640Y-55246038D01*
X97245640Y-55246038D02*
X97350402Y-55350800D01*
X97350402Y-55350800D02*
X97559926Y-55455561D01*
X97559926Y-55455561D02*
X98398021Y-55455561D01*
X98398021Y-55455561D02*
X98398021Y-53255561D01*
X98398021Y-53255561D02*
X97664688Y-53255561D01*
X97664688Y-53255561D02*
X97455164Y-53360323D01*
X97455164Y-53360323D02*
X97350402Y-53465085D01*
X97350402Y-53465085D02*
X97245640Y-53674609D01*
X97245640Y-53674609D02*
X97245640Y-53884133D01*
X97245640Y-53884133D02*
X97350402Y-54093657D01*
X97350402Y-54093657D02*
X97455164Y-54198419D01*
X97455164Y-54198419D02*
X97664688Y-54303180D01*
X97664688Y-54303180D02*
X98398021Y-54303180D01*
X94836117Y-53255561D02*
X94102783Y-55455561D01*
X94102783Y-55455561D02*
X93369450Y-53255561D01*
X91483736Y-55455561D02*
X92740879Y-55455561D01*
X92112307Y-55455561D02*
X92112307Y-53255561D01*
X92112307Y-53255561D02*
X92321831Y-53569847D01*
X92321831Y-53569847D02*
X92531355Y-53779371D01*
X92531355Y-53779371D02*
X92740879Y-53884133D01*
D11*
%TO.C,G\u002A\u002A\u002A*%
G36*
X81387974Y-134914810D02*
G01*
X81307595Y-134995190D01*
X81227215Y-134914810D01*
X81307595Y-134834430D01*
X81387974Y-134914810D01*
G37*
G36*
X81387974Y-136361645D02*
G01*
X81307595Y-136442025D01*
X81227215Y-136361645D01*
X81307595Y-136281266D01*
X81387974Y-136361645D01*
G37*
G36*
X82031012Y-128323671D02*
G01*
X81950632Y-128404051D01*
X81870253Y-128323671D01*
X81950632Y-128243291D01*
X82031012Y-128323671D01*
G37*
G36*
X82191772Y-132021139D02*
G01*
X82111392Y-132101519D01*
X82031012Y-132021139D01*
X82111392Y-131940759D01*
X82191772Y-132021139D01*
G37*
G36*
X82352531Y-141023671D02*
G01*
X82272151Y-141104051D01*
X82191772Y-141023671D01*
X82272151Y-140943291D01*
X82352531Y-141023671D01*
G37*
G36*
X82834810Y-140219873D02*
G01*
X82754430Y-140300253D01*
X82674050Y-140219873D01*
X82754430Y-140139494D01*
X82834810Y-140219873D01*
G37*
G36*
X83156329Y-136200886D02*
G01*
X83075949Y-136281266D01*
X82995569Y-136200886D01*
X83075949Y-136120506D01*
X83156329Y-136200886D01*
G37*
G36*
X83317088Y-137486962D02*
G01*
X83236708Y-137567342D01*
X83156329Y-137486962D01*
X83236708Y-137406582D01*
X83317088Y-137486962D01*
G37*
G36*
X83477848Y-124626202D02*
G01*
X83397468Y-124706582D01*
X83317088Y-124626202D01*
X83397468Y-124545823D01*
X83477848Y-124626202D01*
G37*
G36*
X83638607Y-131378101D02*
G01*
X83558227Y-131458481D01*
X83477848Y-131378101D01*
X83558227Y-131297721D01*
X83638607Y-131378101D01*
G37*
G36*
X83638607Y-150026202D02*
G01*
X83558227Y-150106582D01*
X83477848Y-150026202D01*
X83558227Y-149945823D01*
X83638607Y-150026202D01*
G37*
G36*
X83960126Y-126716076D02*
G01*
X83879746Y-126796456D01*
X83799367Y-126716076D01*
X83879746Y-126635696D01*
X83960126Y-126716076D01*
G37*
G36*
X83960126Y-140862911D02*
G01*
X83879746Y-140943291D01*
X83799367Y-140862911D01*
X83879746Y-140782532D01*
X83960126Y-140862911D01*
G37*
G36*
X84120886Y-143274304D02*
G01*
X84040506Y-143354683D01*
X83960126Y-143274304D01*
X84040506Y-143193924D01*
X84120886Y-143274304D01*
G37*
G36*
X84442405Y-131217342D02*
G01*
X84362025Y-131297721D01*
X84281645Y-131217342D01*
X84362025Y-131136962D01*
X84442405Y-131217342D01*
G37*
G36*
X84442405Y-131860380D02*
G01*
X84362025Y-131940759D01*
X84281645Y-131860380D01*
X84362025Y-131780000D01*
X84442405Y-131860380D01*
G37*
G36*
X84763924Y-123179367D02*
G01*
X84683544Y-123259747D01*
X84603164Y-123179367D01*
X84683544Y-123098987D01*
X84763924Y-123179367D01*
G37*
G36*
X85406962Y-151473038D02*
G01*
X85326582Y-151553418D01*
X85246202Y-151473038D01*
X85326582Y-151392658D01*
X85406962Y-151473038D01*
G37*
G36*
X85728481Y-155974304D02*
G01*
X85648101Y-156054683D01*
X85567721Y-155974304D01*
X85648101Y-155893924D01*
X85728481Y-155974304D01*
G37*
G36*
X80584177Y-132744557D02*
G01*
X80572575Y-132829662D01*
X80477004Y-132851730D01*
X80457764Y-132828168D01*
X80477004Y-132637384D01*
X80525357Y-132612234D01*
X80584177Y-132744557D01*
G37*
G36*
X81387974Y-135959747D02*
G01*
X81376373Y-136044852D01*
X81280801Y-136066920D01*
X81261561Y-136043358D01*
X81280801Y-135852574D01*
X81329155Y-135827423D01*
X81387974Y-135959747D01*
G37*
G36*
X81709493Y-131940759D02*
G01*
X81697892Y-132025865D01*
X81602320Y-132047932D01*
X81583080Y-132024370D01*
X81602320Y-131833586D01*
X81650674Y-131808436D01*
X81709493Y-131940759D01*
G37*
G36*
X82031012Y-130333164D02*
G01*
X82019411Y-130418270D01*
X81923839Y-130440337D01*
X81904599Y-130416775D01*
X81923839Y-130225991D01*
X81972193Y-130200841D01*
X82031012Y-130333164D01*
G37*
G36*
X82191772Y-134352152D02*
G01*
X82180170Y-134437257D01*
X82084599Y-134459325D01*
X82065359Y-134435763D01*
X82084599Y-134244979D01*
X82132952Y-134219829D01*
X82191772Y-134352152D01*
G37*
G36*
X82352531Y-119240759D02*
G01*
X82340930Y-119325865D01*
X82245358Y-119347932D01*
X82226118Y-119324370D01*
X82245358Y-119133586D01*
X82293712Y-119108436D01*
X82352531Y-119240759D01*
G37*
G36*
X82674050Y-138371139D02*
G01*
X82662449Y-138456245D01*
X82566877Y-138478312D01*
X82547637Y-138454750D01*
X82566877Y-138263966D01*
X82615231Y-138238816D01*
X82674050Y-138371139D01*
G37*
G36*
X82834810Y-125992658D02*
G01*
X82823208Y-126077764D01*
X82727637Y-126099831D01*
X82708397Y-126076269D01*
X82727637Y-125885485D01*
X82775990Y-125860335D01*
X82834810Y-125992658D01*
G37*
G36*
X83960126Y-132423038D02*
G01*
X83948524Y-132508143D01*
X83852953Y-132530211D01*
X83833713Y-132506649D01*
X83852953Y-132315865D01*
X83901307Y-132290715D01*
X83960126Y-132423038D01*
G37*
G36*
X83960126Y-151553418D02*
G01*
X83948524Y-151638523D01*
X83852953Y-151660591D01*
X83833713Y-151637029D01*
X83852953Y-151446245D01*
X83901307Y-151421094D01*
X83960126Y-151553418D01*
G37*
G36*
X84120886Y-128886329D02*
G01*
X84109284Y-128971435D01*
X84013713Y-128993502D01*
X83994473Y-128969940D01*
X84013713Y-128779156D01*
X84062066Y-128754006D01*
X84120886Y-128886329D01*
G37*
G36*
X84108194Y-127184958D02*
G01*
X84096827Y-127348010D01*
X84023760Y-127395955D01*
X83991904Y-127339080D01*
X84011069Y-127087832D01*
X84068933Y-127013422D01*
X84108194Y-127184958D01*
G37*
G36*
X84268954Y-146797616D02*
G01*
X84257587Y-146960668D01*
X84184520Y-147008613D01*
X84152663Y-146951738D01*
X84171828Y-146700490D01*
X84229693Y-146626080D01*
X84268954Y-146797616D01*
G37*
G36*
X84429713Y-125738122D02*
G01*
X84418346Y-125901174D01*
X84345279Y-125949119D01*
X84313423Y-125892244D01*
X84332588Y-125640997D01*
X84390452Y-125566586D01*
X84429713Y-125738122D01*
G37*
G36*
X84603164Y-129690126D02*
G01*
X84591562Y-129775232D01*
X84495991Y-129797299D01*
X84476751Y-129773737D01*
X84495991Y-129582953D01*
X84544345Y-129557803D01*
X84603164Y-129690126D01*
G37*
G36*
X84603164Y-144962278D02*
G01*
X84591562Y-145047384D01*
X84495991Y-145069451D01*
X84476751Y-145045889D01*
X84495991Y-144855105D01*
X84544345Y-144829955D01*
X84603164Y-144962278D01*
G37*
G36*
X84763924Y-152035696D02*
G01*
X84752322Y-152120802D01*
X84656751Y-152142869D01*
X84637511Y-152119307D01*
X84656751Y-151928523D01*
X84705104Y-151903373D01*
X84763924Y-152035696D01*
G37*
G36*
X84924683Y-128243291D02*
G01*
X84913081Y-128328397D01*
X84817510Y-128350464D01*
X84798270Y-128326902D01*
X84817510Y-128136118D01*
X84865864Y-128110968D01*
X84924683Y-128243291D01*
G37*
G36*
X84924683Y-142550886D02*
G01*
X84913081Y-142635992D01*
X84817510Y-142658059D01*
X84798270Y-142634497D01*
X84817510Y-142443713D01*
X84865864Y-142418563D01*
X84924683Y-142550886D01*
G37*
G36*
X85406962Y-122134430D02*
G01*
X85395360Y-122219536D01*
X85299789Y-122241603D01*
X85280549Y-122218041D01*
X85299789Y-122027257D01*
X85348142Y-122002107D01*
X85406962Y-122134430D01*
G37*
G36*
X85406962Y-152517975D02*
G01*
X85395360Y-152603080D01*
X85299789Y-152625148D01*
X85280549Y-152601585D01*
X85299789Y-152410802D01*
X85348142Y-152385651D01*
X85406962Y-152517975D01*
G37*
G36*
X92962658Y-141104051D02*
G01*
X92951056Y-141189156D01*
X92855485Y-141211224D01*
X92836245Y-141187661D01*
X92855485Y-140996878D01*
X92903838Y-140971727D01*
X92962658Y-141104051D01*
G37*
G36*
X83038779Y-139670101D02*
G01*
X82951758Y-139877272D01*
X82868929Y-139839952D01*
X82855165Y-139737140D01*
X82968489Y-139459232D01*
X82976066Y-139451772D01*
X83075296Y-139421936D01*
X83038779Y-139670101D01*
G37*
G36*
X87954275Y-159013383D02*
G01*
X88025689Y-159063008D01*
X88139873Y-159198981D01*
X88138308Y-159221455D01*
X88045250Y-159256858D01*
X87883383Y-159084275D01*
X87844268Y-158994435D01*
X87954275Y-159013383D01*
G37*
G36*
X81775927Y-133691476D02*
G01*
X81870253Y-133969228D01*
X81848584Y-134076371D01*
X81709493Y-134111013D01*
X81643059Y-134048271D01*
X81548734Y-133770518D01*
X81570402Y-133663375D01*
X81709493Y-133628734D01*
X81775927Y-133691476D01*
G37*
G36*
X82567127Y-126801430D02*
G01*
X82662878Y-126946062D01*
X82513291Y-127278734D01*
X82474936Y-127335313D01*
X82380375Y-127393065D01*
X82354993Y-127158164D01*
X82388773Y-126932611D01*
X82513291Y-126796456D01*
X82567127Y-126801430D01*
G37*
G36*
X82561400Y-135108565D02*
G01*
X82674050Y-135245817D01*
X82669871Y-135261860D01*
X82513291Y-135316709D01*
X82469228Y-135310166D01*
X82352531Y-135146462D01*
X82365153Y-135088315D01*
X82513291Y-135075570D01*
X82561400Y-135108565D01*
G37*
G36*
X82674050Y-143354683D02*
G01*
X82789930Y-143592448D01*
X82816578Y-143878709D01*
X82674050Y-143997721D01*
X82564385Y-143876409D01*
X82515752Y-143555633D01*
X82519324Y-143414959D01*
X82562630Y-143245938D01*
X82674050Y-143354683D01*
G37*
G36*
X82710431Y-136926147D02*
G01*
X82834810Y-136995196D01*
X82827412Y-137020983D01*
X82674050Y-137165443D01*
X82611778Y-137190562D01*
X82513291Y-137094551D01*
X82519468Y-137047888D01*
X82674050Y-136924304D01*
X82710431Y-136926147D01*
G37*
G36*
X83072198Y-125055267D02*
G01*
X83156329Y-125269240D01*
X83149346Y-125379106D01*
X83093148Y-125510380D01*
X83051539Y-125480762D01*
X82937434Y-125269240D01*
X82912162Y-125145939D01*
X83000615Y-125028101D01*
X83072198Y-125055267D01*
G37*
G36*
X83516273Y-140947963D02*
G01*
X83638607Y-141104051D01*
X83633936Y-141142476D01*
X83477848Y-141264810D01*
X83439422Y-141260139D01*
X83317088Y-141104051D01*
X83321760Y-141065625D01*
X83477848Y-140943291D01*
X83516273Y-140947963D01*
G37*
G36*
X83638607Y-129288228D02*
G01*
X83731663Y-129416079D01*
X83788068Y-129739804D01*
X83780947Y-129905771D01*
X83745288Y-129991043D01*
X83638607Y-129770506D01*
X83544236Y-129530143D01*
X83502241Y-129278368D01*
X83638607Y-129288228D01*
G37*
G36*
X83960126Y-150418614D02*
G01*
X83953948Y-150465276D01*
X83799367Y-150588861D01*
X83762985Y-150587018D01*
X83638607Y-150517968D01*
X83646005Y-150492181D01*
X83799367Y-150347721D01*
X83861639Y-150322602D01*
X83960126Y-150418614D01*
G37*
G36*
X83998552Y-125032773D02*
G01*
X84120886Y-125188861D01*
X84116214Y-125227286D01*
X83960126Y-125349620D01*
X83921701Y-125344949D01*
X83799367Y-125188861D01*
X83804038Y-125150435D01*
X83960126Y-125028101D01*
X83998552Y-125032773D01*
G37*
G36*
X84164789Y-145397081D02*
G01*
X84281645Y-145614804D01*
X84277044Y-145650694D01*
X84120886Y-145766076D01*
X84044059Y-145735402D01*
X83960126Y-145515449D01*
X83983259Y-145400621D01*
X84120886Y-145364177D01*
X84164789Y-145397081D01*
G37*
G36*
X84681444Y-121999545D02*
G01*
X84728927Y-122159267D01*
X84652317Y-122276931D01*
X84370379Y-122431112D01*
X84203365Y-122430075D01*
X84155883Y-122270353D01*
X84232492Y-122152689D01*
X84514430Y-121998508D01*
X84681444Y-121999545D01*
G37*
G36*
X84325090Y-149255257D02*
G01*
X84442405Y-149482519D01*
X84430019Y-149536575D01*
X84281645Y-149543924D01*
X84238200Y-149511072D01*
X84120886Y-149283810D01*
X84133271Y-149229754D01*
X84281645Y-149222405D01*
X84325090Y-149255257D01*
G37*
G36*
X84981069Y-124665584D02*
G01*
X85072728Y-124866116D01*
X84924683Y-125188861D01*
X84872316Y-125261209D01*
X84790237Y-125264326D01*
X84766385Y-124978424D01*
X84808921Y-124686003D01*
X84924683Y-124626202D01*
X84981069Y-124665584D01*
G37*
G36*
X85085443Y-150891405D02*
G01*
X85079441Y-150938559D01*
X84924683Y-151151519D01*
X84862972Y-151177273D01*
X84763924Y-151090114D01*
X84769925Y-151042960D01*
X84924683Y-150830000D01*
X84986394Y-150804246D01*
X85085443Y-150891405D01*
G37*
G36*
X82350070Y-126344879D02*
G01*
X82310836Y-126657564D01*
X82191772Y-126876835D01*
X82107175Y-126889817D01*
X82039822Y-126733241D01*
X82068021Y-126449980D01*
X82191772Y-126153418D01*
X82241635Y-126083429D01*
X82325910Y-126069496D01*
X82350070Y-126344879D01*
G37*
G36*
X87983694Y-151315825D02*
G01*
X88126229Y-151570268D01*
X88222508Y-151832986D01*
X88279572Y-152088462D01*
X88215797Y-152093352D01*
X88040476Y-151820534D01*
X88026364Y-151794072D01*
X87889192Y-151461631D01*
X87882699Y-151274726D01*
X87983694Y-151315825D01*
G37*
G36*
X83150093Y-128204159D02*
G01*
X83354816Y-128323671D01*
X83468464Y-128536564D01*
X83363312Y-128615963D01*
X82995569Y-128515601D01*
X82970698Y-128506075D01*
X82646814Y-128351433D01*
X82513291Y-128228988D01*
X82587150Y-128158893D01*
X82845069Y-128143705D01*
X83150093Y-128204159D01*
G37*
G36*
X83865456Y-148791997D02*
G01*
X83838527Y-149062615D01*
X83754711Y-149345523D01*
X83619412Y-149555787D01*
X83617675Y-149556849D01*
X83499698Y-149530992D01*
X83482121Y-149323793D01*
X83552143Y-149053606D01*
X83696963Y-148838785D01*
X83768536Y-148784556D01*
X83865456Y-148791997D01*
G37*
G36*
X84404150Y-120685523D02*
G01*
X84442405Y-120999626D01*
X84442383Y-121012583D01*
X84423758Y-121351193D01*
X84380766Y-121491392D01*
X84297778Y-121377794D01*
X84243564Y-121087092D01*
X84240884Y-120773850D01*
X84303204Y-120593891D01*
X84311258Y-120589733D01*
X84404150Y-120685523D01*
G37*
G36*
X82995569Y-137808481D02*
G01*
X83135260Y-137943241D01*
X83295126Y-138137692D01*
X83291302Y-138198723D01*
X83101347Y-138070699D01*
X82973130Y-137992920D01*
X82779828Y-137997428D01*
X82719140Y-138004765D01*
X82674050Y-137810358D01*
X82682769Y-137640369D01*
X82762743Y-137614142D01*
X82995569Y-137808481D01*
G37*
G36*
X83462694Y-138612278D02*
G01*
X83447151Y-138722621D01*
X83314626Y-139014177D01*
X83293184Y-139046346D01*
X83149358Y-139174488D01*
X82998031Y-139014177D01*
X82855008Y-138729300D01*
X82875368Y-138592381D01*
X83060316Y-138679684D01*
X83242233Y-138783035D01*
X83369143Y-138659178D01*
X83410758Y-138578886D01*
X83462694Y-138612278D01*
G37*
G36*
X83125780Y-126820666D02*
G01*
X83413134Y-127139209D01*
X83677651Y-127628528D01*
X83777474Y-128153954D01*
X83760938Y-128432050D01*
X83733380Y-128483582D01*
X83680887Y-128243291D01*
X83607983Y-127965111D01*
X83501831Y-127761013D01*
X83416807Y-127690138D01*
X83125292Y-127362564D01*
X82935350Y-127027386D01*
X82915108Y-126796588D01*
X82940102Y-126769151D01*
X83125780Y-126820666D01*
G37*
G36*
X93512332Y-143608343D02*
G01*
X93580890Y-143971870D01*
X93605696Y-144560380D01*
X93600616Y-144830376D01*
X93552684Y-145323563D01*
X93466283Y-145583025D01*
X93356293Y-145579518D01*
X93237597Y-145283797D01*
X93211181Y-145090971D01*
X93272886Y-144962278D01*
X93305990Y-144928154D01*
X93342473Y-144669084D01*
X93327559Y-144238861D01*
X93315901Y-144070004D01*
X93334730Y-143663056D01*
X93434280Y-143515443D01*
X93512332Y-143608343D01*
G37*
G36*
X82619640Y-141386381D02*
G01*
X82669959Y-141463386D01*
X82859236Y-141490853D01*
X83009547Y-141496439D01*
X83242292Y-141690801D01*
X83258184Y-141711861D01*
X83446471Y-141992141D01*
X83420806Y-142040953D01*
X83183473Y-141852033D01*
X82964077Y-141705560D01*
X82776921Y-141697804D01*
X82561129Y-141813184D01*
X82311582Y-141846281D01*
X82194233Y-141773054D01*
X82220212Y-141683159D01*
X82367232Y-141425570D01*
X82509671Y-141282329D01*
X82619640Y-141386381D01*
G37*
G36*
X83562902Y-139984896D02*
G01*
X83638607Y-140148981D01*
X83625985Y-140207127D01*
X83477848Y-140219873D01*
X83378974Y-140229240D01*
X83317088Y-140451525D01*
X83272117Y-140647585D01*
X83075949Y-140782532D01*
X82964867Y-140801795D01*
X82834810Y-140952779D01*
X82823510Y-141009254D01*
X82678871Y-141026650D01*
X82680516Y-140905588D01*
X82836121Y-140642247D01*
X83082122Y-140336810D01*
X83341051Y-140084048D01*
X83535442Y-139978734D01*
X83562902Y-139984896D01*
G37*
G36*
X82872532Y-142339742D02*
G01*
X82998031Y-142625286D01*
X82999216Y-142690949D01*
X83036604Y-142847056D01*
X83158790Y-142711645D01*
X83180299Y-142679378D01*
X83323746Y-142551337D01*
X83473615Y-142711645D01*
X83543022Y-142887666D01*
X83393235Y-143004762D01*
X83287171Y-143043897D01*
X83156329Y-143205711D01*
X83144577Y-143302144D01*
X83039545Y-143363041D01*
X82884830Y-143215487D01*
X82753437Y-142912595D01*
X82681382Y-142666081D01*
X82606632Y-142595083D01*
X82506170Y-142792025D01*
X82439168Y-142943313D01*
X82383246Y-142961169D01*
X82363830Y-142681447D01*
X82363385Y-142598132D01*
X82435102Y-142328877D01*
X82674050Y-142273568D01*
X82872532Y-142339742D01*
G37*
G36*
X83181743Y-134547476D02*
G01*
X83317088Y-134683158D01*
X83308968Y-134735011D01*
X83176408Y-134766460D01*
X83138006Y-134765277D01*
X83026144Y-134946166D01*
X82932369Y-135325884D01*
X82914152Y-135429135D01*
X82752722Y-135883422D01*
X82470201Y-136109963D01*
X82146255Y-136181714D01*
X81947244Y-136043034D01*
X81799444Y-135638228D01*
X81692499Y-135236329D01*
X82022515Y-135615847D01*
X82052988Y-135650091D01*
X82265522Y-135834155D01*
X82352531Y-135807309D01*
X82363664Y-135741859D01*
X82496446Y-135708197D01*
X82520375Y-135720889D01*
X82677290Y-135664650D01*
X82751147Y-135379890D01*
X82719131Y-134944811D01*
X82695013Y-134790429D01*
X82738459Y-134566795D01*
X82976828Y-134512911D01*
X83181743Y-134547476D01*
G37*
G36*
X92748023Y-138951290D02*
G01*
X92876884Y-139174937D01*
X92937941Y-139303487D01*
X93094884Y-139786700D01*
X93207768Y-140340263D01*
X93247760Y-140589890D01*
X93337521Y-140985051D01*
X93419807Y-141170211D01*
X93420341Y-141170555D01*
X93483368Y-141355191D01*
X93520887Y-141739621D01*
X93532997Y-142219777D01*
X93519799Y-142691591D01*
X93481392Y-143050996D01*
X93417874Y-143193924D01*
X93309583Y-143097014D01*
X93197661Y-142811690D01*
X93142386Y-142487086D01*
X93183096Y-142276862D01*
X93205890Y-142186241D01*
X93092170Y-141950577D01*
X92990845Y-141779791D01*
X93081776Y-141612065D01*
X93104180Y-141593057D01*
X93155564Y-141377248D01*
X93107385Y-140930955D01*
X92956359Y-140217672D01*
X92882912Y-139907261D01*
X92745901Y-139315398D01*
X92679662Y-138983877D01*
X92681326Y-138875055D01*
X92748023Y-138951290D01*
G37*
G36*
X83658475Y-143661509D02*
G01*
X83943248Y-143902068D01*
X84171498Y-144156879D01*
X84276532Y-144384346D01*
X84224508Y-144432451D01*
X84060738Y-144282985D01*
X84013990Y-144223901D01*
X83815259Y-144093052D01*
X83557452Y-144219549D01*
X83399084Y-144441816D01*
X83367894Y-144704624D01*
X83452029Y-144890264D01*
X83637472Y-144882600D01*
X83733041Y-144844598D01*
X83774910Y-144972763D01*
X83638607Y-145364177D01*
X83570694Y-145518060D01*
X83507446Y-145584636D01*
X83489147Y-145343671D01*
X83442503Y-145121208D01*
X83236708Y-144801519D01*
X83110774Y-144715905D01*
X83017390Y-144775770D01*
X82995569Y-145103354D01*
X82976027Y-145375444D01*
X82878727Y-145584262D01*
X82742012Y-145493412D01*
X82613765Y-145102943D01*
X82574238Y-144895260D01*
X82520931Y-144451657D01*
X82573191Y-144253490D01*
X82737750Y-144254705D01*
X82962452Y-144212749D01*
X83223125Y-143968330D01*
X83298622Y-143860744D01*
X83486799Y-143643759D01*
X83658475Y-143661509D01*
G37*
G36*
X83555332Y-145859341D02*
G01*
X83768975Y-146029284D01*
X83942497Y-146286132D01*
X83902172Y-146463233D01*
X83638607Y-146489494D01*
X83433541Y-146457465D01*
X83330248Y-146521884D01*
X83414313Y-146796941D01*
X83481682Y-146918473D01*
X83625417Y-146979924D01*
X83693465Y-146998118D01*
X83902674Y-147206327D01*
X84171230Y-147575685D01*
X84423134Y-148005682D01*
X84574797Y-148360011D01*
X84590586Y-148547069D01*
X84468428Y-148526476D01*
X84206248Y-148257848D01*
X84135599Y-148169834D01*
X83902224Y-147846489D01*
X83805148Y-147655000D01*
X83799628Y-147627625D01*
X83638607Y-147534430D01*
X83612141Y-147542473D01*
X83516516Y-147741474D01*
X83477848Y-148123882D01*
X83477843Y-148129266D01*
X83441307Y-148498813D01*
X83358186Y-148579850D01*
X83265615Y-148393968D01*
X83200729Y-147962759D01*
X83192255Y-147851102D01*
X83143449Y-147310164D01*
X83082838Y-146730633D01*
X83076974Y-146677963D01*
X83037455Y-146089993D01*
X83092129Y-145779473D01*
X83258815Y-145713542D01*
X83555332Y-145859341D01*
G37*
G36*
X82649157Y-128992975D02*
G01*
X82873501Y-129065132D01*
X82986517Y-129229035D01*
X83086327Y-129593864D01*
X83104367Y-129669197D01*
X83130120Y-129937477D01*
X83019015Y-129945756D01*
X82923207Y-129918016D01*
X82834810Y-130069390D01*
X82825565Y-130193740D01*
X82736531Y-130562979D01*
X82713765Y-130732930D01*
X82897290Y-130719687D01*
X83026041Y-130641135D01*
X83156329Y-130401390D01*
X83189787Y-130296552D01*
X83397468Y-130275030D01*
X83562099Y-130356572D01*
X83607390Y-130511255D01*
X83363640Y-130739920D01*
X83337750Y-130759398D01*
X83175757Y-130988290D01*
X83250136Y-131320301D01*
X83256182Y-131335086D01*
X83333554Y-131765317D01*
X83305127Y-132262278D01*
X83280355Y-132380949D01*
X83210048Y-132582215D01*
X83166192Y-132503418D01*
X83133731Y-132181899D01*
X83004138Y-132503418D01*
X82950970Y-132721504D01*
X82993270Y-132985696D01*
X83095779Y-133195228D01*
X83213777Y-133573294D01*
X83252381Y-133764650D01*
X83215507Y-133933866D01*
X82994804Y-133916253D01*
X82801236Y-133901324D01*
X82674050Y-134011883D01*
X82667542Y-134066160D01*
X82535584Y-134191392D01*
X82462922Y-134088216D01*
X82473945Y-133789494D01*
X82559883Y-133524871D01*
X82692791Y-133387595D01*
X82757962Y-133360532D01*
X82834810Y-133146456D01*
X82817658Y-133035651D01*
X82682413Y-132905316D01*
X82650406Y-132889126D01*
X82637199Y-132687787D01*
X82719603Y-132341856D01*
X82866140Y-131960101D01*
X83045331Y-131651293D01*
X83096347Y-131469668D01*
X82861247Y-131351215D01*
X82650685Y-131238245D01*
X82513291Y-130970601D01*
X82501378Y-130807555D01*
X82405592Y-130400321D01*
X82366466Y-130227920D01*
X82485971Y-130235900D01*
X82493191Y-130240192D01*
X82629740Y-130199650D01*
X82674050Y-129860374D01*
X82623040Y-129518333D01*
X82482648Y-129408797D01*
X82372382Y-129388370D01*
X82231114Y-129174887D01*
X82229128Y-129165578D01*
X82262555Y-128973351D01*
X82524647Y-128968896D01*
X82649157Y-128992975D01*
G37*
G36*
X85361967Y-141261503D02*
G01*
X85426112Y-141707165D01*
X85485035Y-142432546D01*
X85539523Y-143448096D01*
X85590363Y-144764261D01*
X85638341Y-146391491D01*
X85641056Y-146493412D01*
X85671038Y-147452420D01*
X85705017Y-148292557D01*
X85740363Y-148963177D01*
X85774446Y-149413634D01*
X85804635Y-149593285D01*
X85829210Y-149619056D01*
X85864564Y-149752558D01*
X85607911Y-149751920D01*
X85433908Y-149767094D01*
X85348910Y-149986013D01*
X85347754Y-150134967D01*
X85286252Y-150267342D01*
X85235961Y-150251884D01*
X85041220Y-150057256D01*
X84854833Y-149750412D01*
X84769036Y-149473008D01*
X84768939Y-149467357D01*
X84822073Y-149369950D01*
X84999950Y-149553388D01*
X85135661Y-149726680D01*
X85223929Y-149764688D01*
X85241089Y-149535886D01*
X85214586Y-149328187D01*
X85080813Y-149058414D01*
X85441308Y-149058414D01*
X85460548Y-149249198D01*
X85508902Y-149274348D01*
X85567721Y-149142025D01*
X85556119Y-149056920D01*
X85460548Y-149034852D01*
X85441308Y-149058414D01*
X85080813Y-149058414D01*
X85063625Y-149023752D01*
X84974605Y-148841110D01*
X85131087Y-148591137D01*
X85340147Y-148440098D01*
X85460548Y-148539633D01*
X85461732Y-148540612D01*
X85513628Y-148613110D01*
X85555030Y-148464453D01*
X85495144Y-148260696D01*
X85241700Y-148014299D01*
X85057029Y-147868399D01*
X85011668Y-147684502D01*
X85049894Y-147640020D01*
X85257310Y-147621675D01*
X85333978Y-147633432D01*
X85406962Y-147463538D01*
X85389661Y-147344019D01*
X85264952Y-147212911D01*
X85173102Y-147168639D01*
X85023709Y-146931582D01*
X84967228Y-146778051D01*
X84818057Y-146409114D01*
X84788584Y-146339143D01*
X84789025Y-146251465D01*
X84978920Y-146388608D01*
X85049362Y-146445190D01*
X85210386Y-146521690D01*
X85246202Y-146357906D01*
X85231683Y-146238310D01*
X85104847Y-146019208D01*
X85006459Y-145905744D01*
X84875438Y-145595123D01*
X84864527Y-145551382D01*
X84865577Y-145342482D01*
X85056982Y-145361003D01*
X85074504Y-145367613D01*
X85233502Y-145401466D01*
X85125632Y-145261170D01*
X85076858Y-145202721D01*
X84946290Y-144859846D01*
X84947060Y-144485372D01*
X85085443Y-144238861D01*
X85197119Y-144138671D01*
X85221092Y-143934885D01*
X85005063Y-143836962D01*
X84886275Y-143822009D01*
X84770796Y-143661215D01*
X84861149Y-143288375D01*
X84933611Y-143168856D01*
X85102288Y-143123955D01*
X85164834Y-143145543D01*
X85239627Y-143024584D01*
X85201243Y-142717847D01*
X85054393Y-142305798D01*
X85007886Y-142198579D01*
X84946456Y-141915510D01*
X85074989Y-141753549D01*
X85165270Y-141673136D01*
X85197025Y-141476057D01*
X85170725Y-141385920D01*
X85240857Y-141112699D01*
X85291814Y-141085113D01*
X85361967Y-141261503D01*
G37*
G36*
X76304937Y-73844394D02*
G01*
X79029456Y-74202186D01*
X81709493Y-74800873D01*
X82243827Y-74941666D01*
X83422430Y-75231036D01*
X84536438Y-75477304D01*
X85246202Y-75614433D01*
X85524968Y-75668291D01*
X85728481Y-75699629D01*
X86039533Y-75747527D01*
X86327138Y-75791815D01*
X86612658Y-75814393D01*
X86882062Y-75835696D01*
X86884393Y-75835738D01*
X86964699Y-75837197D01*
X87014557Y-75843298D01*
X87355051Y-75884965D01*
X87453947Y-75897067D01*
X87475436Y-75899697D01*
X87506323Y-75909576D01*
X87859121Y-76022417D01*
X87869112Y-76025613D01*
X87977676Y-76067083D01*
X88395026Y-76171815D01*
X89032934Y-76299191D01*
X89345569Y-76353379D01*
X89470145Y-76374971D01*
X89826800Y-76436789D01*
X90712025Y-76572191D01*
X90827024Y-76588814D01*
X92472351Y-76859182D01*
X94130590Y-77187250D01*
X95718273Y-77553847D01*
X97151932Y-77939803D01*
X98348101Y-78325949D01*
X98518565Y-78387898D01*
X98983729Y-78563985D01*
X99171697Y-78656224D01*
X99104065Y-78680067D01*
X98802432Y-78650962D01*
X98728567Y-78643435D01*
X98221848Y-78633564D01*
X97540464Y-78666097D01*
X96739426Y-78733409D01*
X95873749Y-78827876D01*
X94998444Y-78941872D01*
X94168523Y-79067772D01*
X93439001Y-79197953D01*
X92864888Y-79324790D01*
X92501199Y-79440657D01*
X92402945Y-79537930D01*
X92407007Y-79546242D01*
X92301685Y-79652422D01*
X91969007Y-79752006D01*
X91495786Y-79825818D01*
X90968839Y-79854683D01*
X90735338Y-79874315D01*
X90254170Y-80030067D01*
X89891056Y-80290361D01*
X89747468Y-80593792D01*
X89766443Y-80737995D01*
X89768671Y-80754927D01*
X89879485Y-81204435D01*
X90060483Y-81812340D01*
X90283725Y-82491289D01*
X90521268Y-83153930D01*
X90745172Y-83712911D01*
X91058980Y-84246548D01*
X91355063Y-84587376D01*
X91660824Y-84939344D01*
X92400000Y-85582711D01*
X92421272Y-85601226D01*
X93258118Y-86162375D01*
X93364557Y-86212403D01*
X94089159Y-86552975D01*
X94522084Y-86715540D01*
X95162609Y-87032213D01*
X95550755Y-87386066D01*
X95694095Y-87817561D01*
X95600203Y-88367161D01*
X95276651Y-89075330D01*
X94731012Y-89982532D01*
X94402472Y-90507201D01*
X94073122Y-91063844D01*
X93849120Y-91479804D01*
X93766455Y-91691323D01*
X93768231Y-91755291D01*
X93842415Y-92249169D01*
X94010598Y-92919712D01*
X94252103Y-93713064D01*
X94546249Y-94575368D01*
X94872355Y-95452770D01*
X95209743Y-96291412D01*
X95537731Y-97037439D01*
X95835640Y-97636994D01*
X96082790Y-98036222D01*
X96258501Y-98181266D01*
X96496281Y-98122394D01*
X96604653Y-98042484D01*
X97337283Y-98042484D01*
X97411796Y-98088119D01*
X97507134Y-97872633D01*
X97511528Y-97855629D01*
X97542176Y-97620044D01*
X97436844Y-97661763D01*
X97372784Y-97751282D01*
X97337283Y-98042484D01*
X96604653Y-98042484D01*
X96890691Y-97831570D01*
X97222784Y-97398722D01*
X97239780Y-97376570D01*
X97463236Y-96846380D01*
X97464532Y-96841179D01*
X97542176Y-96550432D01*
X97597255Y-96344183D01*
X97809123Y-95593282D01*
X98084610Y-94640988D01*
X98408191Y-93539809D01*
X98764338Y-92342256D01*
X99137528Y-91100839D01*
X99512233Y-89868069D01*
X99872929Y-88696456D01*
X100077488Y-88033883D01*
X100432229Y-86875436D01*
X100820245Y-85599592D01*
X101207012Y-84319985D01*
X101558005Y-83150253D01*
X101568321Y-83115728D01*
X101869672Y-82124665D01*
X102161664Y-81194928D01*
X102424180Y-80388367D01*
X102637105Y-79766828D01*
X102780323Y-79392159D01*
X102867410Y-79181436D01*
X103027168Y-78702970D01*
X103090506Y-78362397D01*
X103097339Y-78293584D01*
X103234507Y-77923989D01*
X103492405Y-77509381D01*
X103577537Y-77393796D01*
X103803615Y-77036900D01*
X103894303Y-76807785D01*
X103912351Y-76727545D01*
X104056037Y-76411767D01*
X104296301Y-75996299D01*
X104575043Y-75645824D01*
X104971061Y-75331674D01*
X105348587Y-75188190D01*
X105624301Y-75261474D01*
X105633522Y-75345994D01*
X105567343Y-75683603D01*
X105417125Y-76207820D01*
X105201637Y-76848186D01*
X105167199Y-76944569D01*
X104765606Y-78104381D01*
X104336958Y-79399798D01*
X103895732Y-80781919D01*
X103456401Y-82201844D01*
X103033440Y-83610672D01*
X102641323Y-84959502D01*
X102294525Y-86199435D01*
X102007521Y-87281568D01*
X101794784Y-88157002D01*
X101670789Y-88776835D01*
X101648295Y-88953430D01*
X101606918Y-89639078D01*
X101594655Y-90565484D01*
X101608975Y-91674472D01*
X101647346Y-92907864D01*
X101707237Y-94207482D01*
X101786118Y-95515151D01*
X101881458Y-96772692D01*
X101990725Y-97921929D01*
X102111389Y-98904683D01*
X102124757Y-98998844D01*
X102253758Y-99948602D01*
X102373270Y-100895584D01*
X102437222Y-101447580D01*
X102470491Y-101734738D01*
X102532619Y-102361013D01*
X102539454Y-102442003D01*
X102596563Y-103043007D01*
X102652071Y-103516111D01*
X102694844Y-103764948D01*
X102731842Y-103837543D01*
X102920481Y-103891403D01*
X103146457Y-103747721D01*
X103304983Y-103459034D01*
X103393012Y-103278660D01*
X103572395Y-103244949D01*
X103594966Y-103256305D01*
X103895213Y-103293022D01*
X104323843Y-103250611D01*
X104893280Y-103143784D01*
X104781974Y-102252924D01*
X104670669Y-101362065D01*
X105667192Y-101419450D01*
X106663715Y-101476835D01*
X106958002Y-100753418D01*
X107082662Y-100452191D01*
X107197704Y-100220906D01*
X107246973Y-100249067D01*
X107261139Y-100512278D01*
X107261219Y-100517411D01*
X107231536Y-100921440D01*
X107147509Y-101510612D01*
X107027004Y-102159263D01*
X106979756Y-102388947D01*
X106884166Y-102941355D01*
X106869143Y-103350231D01*
X106939047Y-103743512D01*
X107098241Y-104249137D01*
X107266031Y-104702577D01*
X107616065Y-105498610D01*
X108006804Y-106249789D01*
X108391473Y-106869166D01*
X108723295Y-107269794D01*
X108755806Y-107297410D01*
X108844498Y-107372748D01*
X109100748Y-107481774D01*
X109384773Y-107366472D01*
X109616927Y-107257715D01*
X109808795Y-107257361D01*
X109817140Y-107273808D01*
X109810900Y-107517723D01*
X109736026Y-107972212D01*
X109605496Y-108554484D01*
X109575743Y-108677085D01*
X109459266Y-109245383D01*
X109405886Y-109673422D01*
X109427046Y-109876427D01*
X109471040Y-109903414D01*
X109771189Y-109970308D01*
X110217538Y-109997088D01*
X110887341Y-109997088D01*
X110848334Y-110961645D01*
X110858511Y-111557723D01*
X110930377Y-112353470D01*
X111049283Y-113108904D01*
X111081544Y-113273756D01*
X111227154Y-114346963D01*
X111235880Y-115253778D01*
X111112977Y-115960820D01*
X110863698Y-116434709D01*
X110493294Y-116642065D01*
X110291308Y-116694480D01*
X110183303Y-116860574D01*
X110213270Y-117231928D01*
X110220230Y-117272794D01*
X110447849Y-117955280D01*
X110829112Y-118455930D01*
X111313548Y-118707077D01*
X111496278Y-118752942D01*
X111696172Y-118879014D01*
X111740154Y-119112923D01*
X111630534Y-119513694D01*
X111369620Y-120140356D01*
X111196792Y-120568133D01*
X111031567Y-121079044D01*
X110967721Y-121427310D01*
X111010302Y-121649794D01*
X111280212Y-122003881D01*
X111710326Y-122217478D01*
X112196776Y-122223312D01*
X112458096Y-122166968D01*
X112534445Y-122226071D01*
X112384521Y-122486920D01*
X112196181Y-122871928D01*
X112045395Y-123365794D01*
X111974083Y-123599454D01*
X111738806Y-124101907D01*
X111422329Y-124616855D01*
X111248483Y-124856858D01*
X110974548Y-125168162D01*
X110741215Y-125285607D01*
X110466153Y-125265004D01*
X110212365Y-125235142D01*
X109946392Y-125328802D01*
X109941348Y-125565148D01*
X110218727Y-125889898D01*
X110500679Y-126174498D01*
X110818341Y-126748875D01*
X110907129Y-127351881D01*
X110761886Y-127904315D01*
X110377452Y-128326979D01*
X110172085Y-128442841D01*
X109816879Y-128515197D01*
X109332117Y-128433589D01*
X109127167Y-128386002D01*
X108776983Y-128355127D01*
X108637871Y-128458650D01*
X108628743Y-128509055D01*
X108599713Y-128836724D01*
X108565719Y-129398916D01*
X108530269Y-130132964D01*
X108496874Y-130976202D01*
X108435451Y-132090938D01*
X108277691Y-133550060D01*
X108022051Y-134973258D01*
X107654909Y-136395788D01*
X107162642Y-137852910D01*
X106531627Y-139379880D01*
X105748241Y-141011955D01*
X104798863Y-142784394D01*
X103669869Y-144732454D01*
X102347636Y-146891392D01*
X102101235Y-147287308D01*
X101295890Y-148601239D01*
X100416716Y-150060075D01*
X99524442Y-151561847D01*
X98679796Y-153004587D01*
X97943506Y-154286329D01*
X97208181Y-155574427D01*
X96422221Y-156927752D01*
X95749344Y-158058558D01*
X95195208Y-158958213D01*
X94765471Y-159618082D01*
X94465791Y-160029535D01*
X94301828Y-160183937D01*
X94279238Y-160072657D01*
X94403681Y-159687060D01*
X94432754Y-159538381D01*
X94476667Y-159076482D01*
X94521028Y-158357593D01*
X94564151Y-157419930D01*
X94604346Y-156301711D01*
X94639926Y-155041153D01*
X94669202Y-153676473D01*
X94696179Y-152181010D01*
X94722938Y-150621959D01*
X94742192Y-149334814D01*
X94753265Y-148292313D01*
X94755482Y-147467191D01*
X94748167Y-146832185D01*
X94730644Y-146360030D01*
X94702238Y-146023463D01*
X94662273Y-145795220D01*
X94610074Y-145648038D01*
X94544964Y-145554651D01*
X94466269Y-145487798D01*
X94357265Y-145406067D01*
X94276548Y-145303021D01*
X94459147Y-145283797D01*
X94486546Y-145282979D01*
X94697650Y-145164467D01*
X94691393Y-144911976D01*
X94466684Y-144621514D01*
X94356123Y-144534112D01*
X94258029Y-144516661D01*
X94316437Y-144761578D01*
X94338183Y-144833890D01*
X94349833Y-145038361D01*
X94178866Y-145024447D01*
X93985061Y-144879739D01*
X93955280Y-144622635D01*
X94186459Y-144414917D01*
X94188106Y-144414284D01*
X94355907Y-144287605D01*
X94247155Y-144076199D01*
X94136490Y-143900927D01*
X94235984Y-143836962D01*
X94266132Y-143823398D01*
X94336038Y-143603041D01*
X94360638Y-143182523D01*
X94344725Y-142652240D01*
X94293091Y-142102588D01*
X94210529Y-141623960D01*
X94101832Y-141306754D01*
X94017951Y-141180618D01*
X93950292Y-141199900D01*
X93929642Y-141505949D01*
X93926086Y-141619037D01*
X93881664Y-141836770D01*
X93778867Y-141761667D01*
X93722895Y-141634887D01*
X93718934Y-141317531D01*
X93731218Y-141158204D01*
X93598907Y-140854732D01*
X93516012Y-140698709D01*
X93422214Y-140304485D01*
X93399901Y-140059114D01*
X93605696Y-140059114D01*
X93686076Y-140139494D01*
X93766455Y-140059114D01*
X93686076Y-139978734D01*
X93605696Y-140059114D01*
X93399901Y-140059114D01*
X93378300Y-139821563D01*
X93386053Y-139351225D01*
X93447256Y-138994749D01*
X93563690Y-138853418D01*
X93686076Y-138822780D01*
X93688505Y-138822172D01*
X93757158Y-138649705D01*
X93599157Y-138447477D01*
X93522655Y-138342921D01*
X93524127Y-138053365D01*
X93525157Y-138049991D01*
X93528731Y-137750090D01*
X93453260Y-137251466D01*
X93314696Y-136660248D01*
X93222566Y-136277051D01*
X93072379Y-135131369D01*
X93062543Y-133780523D01*
X93191889Y-132181899D01*
X93220754Y-131805058D01*
X93224046Y-130995577D01*
X93164897Y-130252785D01*
X93027633Y-129288228D01*
X92677885Y-129956703D01*
X92350131Y-130759013D01*
X92199214Y-131785220D01*
X92322273Y-132917820D01*
X92322381Y-132918329D01*
X92428119Y-133466600D01*
X92446828Y-133814802D01*
X92367300Y-134075235D01*
X92178330Y-134360200D01*
X92092917Y-134479253D01*
X91998042Y-134646101D01*
X91933858Y-134850456D01*
X91897972Y-135139587D01*
X91887990Y-135560758D01*
X91901519Y-136161235D01*
X91936167Y-136988284D01*
X91989541Y-138089171D01*
X92010654Y-138517039D01*
X92128332Y-140927168D01*
X92229511Y-143049816D01*
X92315381Y-144913769D01*
X92387130Y-146547811D01*
X92445947Y-147980728D01*
X92493023Y-149241304D01*
X92529545Y-150358323D01*
X92556705Y-151360572D01*
X92575689Y-152276835D01*
X92589837Y-153063705D01*
X92627496Y-154901391D01*
X92667398Y-156508431D01*
X92708983Y-157869682D01*
X92751694Y-158969996D01*
X92794972Y-159794230D01*
X92838259Y-160327237D01*
X92880994Y-160553872D01*
X92906780Y-160617940D01*
X92811386Y-160716709D01*
X92763409Y-160721844D01*
X92666661Y-160837278D01*
X92660310Y-160948804D01*
X92566421Y-161246110D01*
X92507206Y-161543189D01*
X92656354Y-161664502D01*
X92985623Y-161543472D01*
X93209798Y-161423072D01*
X93366373Y-161388798D01*
X93368722Y-161391444D01*
X93319456Y-161552576D01*
X93101476Y-161819446D01*
X92797523Y-162104197D01*
X92490339Y-162318973D01*
X92358165Y-162385333D01*
X92121043Y-162429846D01*
X91966539Y-162262196D01*
X91783420Y-162098025D01*
X91419778Y-162002785D01*
X91196295Y-161962606D01*
X90733899Y-161673651D01*
X90278642Y-161149922D01*
X89881931Y-160443540D01*
X89782102Y-160239035D01*
X89480575Y-159804280D01*
X89040794Y-159420019D01*
X88414455Y-159028734D01*
X89586708Y-159028734D01*
X89667088Y-159109114D01*
X89747468Y-159028734D01*
X89667088Y-158948354D01*
X89586708Y-159028734D01*
X88414455Y-159028734D01*
X88380323Y-159007411D01*
X88198435Y-158843423D01*
X88113118Y-158525132D01*
X88125852Y-158460043D01*
X88277755Y-158118276D01*
X88561948Y-158035687D01*
X89027895Y-158194394D01*
X89544135Y-158388604D01*
X89667088Y-158395679D01*
X90149402Y-158423431D01*
X90606027Y-158174254D01*
X90916701Y-157640284D01*
X90929783Y-157458940D01*
X90723963Y-157451817D01*
X90522928Y-157452716D01*
X90201803Y-157289850D01*
X90079938Y-157191562D01*
X89974011Y-157126413D01*
X90926371Y-157126413D01*
X90949933Y-157145653D01*
X91140717Y-157126413D01*
X91165867Y-157078060D01*
X91033544Y-157019240D01*
X90948438Y-157030842D01*
X90926371Y-157126413D01*
X89974011Y-157126413D01*
X89692551Y-156953305D01*
X89205298Y-156707055D01*
X88931191Y-156568905D01*
X88543087Y-156317693D01*
X88349762Y-156111596D01*
X88300043Y-155840655D01*
X88259081Y-155350516D01*
X88237175Y-154752868D01*
X88236650Y-154721573D01*
X88210777Y-154177215D01*
X88161737Y-153790502D01*
X88099683Y-153643364D01*
X88020601Y-153544550D01*
X87979113Y-153242966D01*
X87989879Y-152995826D01*
X88078622Y-152941980D01*
X88330154Y-153122396D01*
X88643820Y-153400126D01*
X89013381Y-153778493D01*
X89683723Y-154509736D01*
X90420186Y-155221339D01*
X91004229Y-155661057D01*
X91033544Y-155672566D01*
X91440817Y-155832465D01*
X91734912Y-155739138D01*
X91798768Y-155624083D01*
X91618866Y-155572405D01*
X91477487Y-155544555D01*
X91435443Y-155411645D01*
X91452527Y-155331189D01*
X91293286Y-155250886D01*
X91108111Y-155181736D01*
X90849612Y-154947417D01*
X90660212Y-154660082D01*
X90636541Y-154439167D01*
X90608778Y-154348511D01*
X90372523Y-154235046D01*
X90186562Y-154142771D01*
X90142679Y-153975630D01*
X90147421Y-153871220D01*
X89934368Y-153804051D01*
X89822421Y-153779811D01*
X89484215Y-153577121D01*
X89121083Y-153235798D01*
X88807497Y-152856749D01*
X88643912Y-152608502D01*
X88666090Y-152546066D01*
X88886480Y-152697979D01*
X89015986Y-152797972D01*
X89093776Y-152786931D01*
X89027292Y-152516714D01*
X88891939Y-152217629D01*
X88601453Y-151827784D01*
X88511445Y-151732247D01*
X88170847Y-151195782D01*
X87917591Y-150539791D01*
X87818354Y-149926190D01*
X87772276Y-149602776D01*
X87657594Y-149463544D01*
X87590282Y-149443073D01*
X87496835Y-149242089D01*
X87459982Y-149094205D01*
X87255696Y-148820506D01*
X87142573Y-148703420D01*
X87022626Y-148444117D01*
X87060333Y-148252808D01*
X87255696Y-148235603D01*
X87258478Y-148236671D01*
X87422204Y-148291311D01*
X87477526Y-148242861D01*
X87425664Y-148024359D01*
X87267836Y-147568841D01*
X87160426Y-147225553D01*
X87084137Y-146658071D01*
X87218593Y-146312250D01*
X87249228Y-146186859D01*
X87160499Y-145899149D01*
X87095586Y-145655126D01*
X87065975Y-145126083D01*
X87099740Y-144433261D01*
X87149257Y-143866105D01*
X87222753Y-142925786D01*
X87260161Y-142238229D01*
X87262394Y-141758774D01*
X87230367Y-141442759D01*
X87164994Y-141245523D01*
X87100600Y-141074097D01*
X87185354Y-140856708D01*
X87254531Y-140741276D01*
X87104498Y-140471578D01*
X87096220Y-140462396D01*
X86951025Y-140250168D01*
X86961182Y-140020433D01*
X87130809Y-139643550D01*
X87147712Y-139609028D01*
X87310227Y-139093428D01*
X87391342Y-138475540D01*
X87390617Y-137858580D01*
X87307612Y-137345765D01*
X87141889Y-137040312D01*
X86870200Y-136726023D01*
X86798244Y-136385806D01*
X86981044Y-136135572D01*
X87018527Y-136114096D01*
X87105180Y-136036895D01*
X87691941Y-136036895D01*
X87711181Y-136227679D01*
X87759535Y-136252830D01*
X87818354Y-136120506D01*
X87806752Y-136035401D01*
X87711181Y-136013333D01*
X87691941Y-136036895D01*
X87105180Y-136036895D01*
X87158350Y-135989524D01*
X87137524Y-135802654D01*
X86951523Y-135448092D01*
X86880745Y-135318052D01*
X86795134Y-135105376D01*
X86863105Y-135115759D01*
X86991128Y-135220075D01*
X87188383Y-135316709D01*
X87208439Y-135310517D01*
X87322504Y-135119728D01*
X87440060Y-134746466D01*
X87535416Y-134305150D01*
X87582882Y-133910198D01*
X87556767Y-133676029D01*
X87522947Y-133599550D01*
X87621648Y-133606518D01*
X87711181Y-133641313D01*
X87761443Y-133660846D01*
X87883782Y-133579268D01*
X87854313Y-133364393D01*
X87664435Y-133115012D01*
X87447705Y-132882712D01*
X87336076Y-132647199D01*
X87262162Y-132513781D01*
X87011601Y-132380706D01*
X86726510Y-132337895D01*
X86558737Y-132428142D01*
X86537138Y-132476601D01*
X86405706Y-132523027D01*
X86268515Y-132356032D01*
X86198529Y-132051841D01*
X86183080Y-131880600D01*
X86125497Y-131888481D01*
X85997579Y-132181899D01*
X85793177Y-132523016D01*
X85413989Y-132708348D01*
X85138714Y-132779796D01*
X84893982Y-132949487D01*
X84807029Y-133047811D01*
X84777684Y-132905316D01*
X84779787Y-132869912D01*
X84835807Y-132586711D01*
X84932497Y-132326104D01*
X85026421Y-132183483D01*
X85074144Y-132254240D01*
X85112747Y-132390729D01*
X85266584Y-132306200D01*
X85359754Y-132095696D01*
X85343901Y-131711390D01*
X85300375Y-131574646D01*
X85143365Y-131338310D01*
X84992280Y-131326325D01*
X84924683Y-131565654D01*
X84910149Y-131694894D01*
X84832244Y-131741147D01*
X84823254Y-131730709D01*
X84775862Y-131483745D01*
X84814659Y-131086673D01*
X84913234Y-130657252D01*
X85045176Y-130313243D01*
X85184076Y-130172405D01*
X85279213Y-130151771D01*
X85406962Y-129958059D01*
X85391403Y-129808689D01*
X85240682Y-129618885D01*
X84979664Y-129711205D01*
X84805544Y-129802358D01*
X84762029Y-129694503D01*
X84859070Y-129435430D01*
X85085443Y-129090955D01*
X85111889Y-129042043D01*
X87175316Y-129042043D01*
X87209452Y-129108565D01*
X87416455Y-129105223D01*
X87531888Y-129053168D01*
X87657594Y-128949509D01*
X87630942Y-128920724D01*
X87416455Y-128886329D01*
X87305601Y-128903871D01*
X87175316Y-129042043D01*
X85111889Y-129042043D01*
X85293133Y-128706830D01*
X85302550Y-128645190D01*
X93284177Y-128645190D01*
X93364557Y-128725570D01*
X93444936Y-128645190D01*
X93364557Y-128564810D01*
X93284177Y-128645190D01*
X85302550Y-128645190D01*
X85406962Y-127961731D01*
X85405290Y-127747388D01*
X85372301Y-127415620D01*
X85262420Y-127296552D01*
X85030977Y-127313126D01*
X84786834Y-127342612D01*
X84741427Y-127244015D01*
X84877987Y-126937996D01*
X85096745Y-126642444D01*
X85313225Y-126572436D01*
X85477411Y-126536283D01*
X85612392Y-126307249D01*
X85650246Y-126002664D01*
X85552444Y-125754291D01*
X85411517Y-125696779D01*
X85217408Y-125891376D01*
X85195704Y-125929026D01*
X85046291Y-126090659D01*
X84908363Y-125971756D01*
X84813571Y-125800686D01*
X84793586Y-125599993D01*
X85003708Y-125612484D01*
X85046859Y-125625300D01*
X85270338Y-125547626D01*
X85382037Y-125273766D01*
X85357249Y-125087096D01*
X85593144Y-125087096D01*
X85622727Y-125297453D01*
X85662993Y-125320195D01*
X85878545Y-125275851D01*
X85951972Y-125202020D01*
X85958415Y-125182881D01*
X108758393Y-125182881D01*
X108863657Y-125409941D01*
X109037472Y-125430702D01*
X109147215Y-125337455D01*
X109170233Y-125148403D01*
X109044563Y-124786962D01*
X108991365Y-124663398D01*
X108898387Y-124562384D01*
X108797524Y-124746772D01*
X108761657Y-124863468D01*
X108758393Y-125182881D01*
X85958415Y-125182881D01*
X86039847Y-124940972D01*
X86024073Y-124670486D01*
X85900073Y-124545823D01*
X85834056Y-124572410D01*
X85684269Y-124789365D01*
X85593144Y-125087096D01*
X85357249Y-125087096D01*
X85333404Y-124907532D01*
X85274443Y-124741470D01*
X85253927Y-124519035D01*
X85406962Y-124445348D01*
X85422959Y-124443237D01*
X85688291Y-124386121D01*
X85900073Y-124366680D01*
X85924630Y-124364426D01*
X85954929Y-124364194D01*
X86133168Y-124189000D01*
X86300451Y-123757344D01*
X86434128Y-123124357D01*
X86466863Y-122855842D01*
X108750287Y-122855842D01*
X108767487Y-123077339D01*
X108866524Y-123508956D01*
X108898387Y-123618663D01*
X109029005Y-124068391D01*
X109203745Y-124593147D01*
X109354655Y-124940846D01*
X109481967Y-125066134D01*
X109615105Y-125016615D01*
X109736738Y-124910574D01*
X109829295Y-124807468D01*
X109828535Y-124806125D01*
X109750113Y-124646371D01*
X109571372Y-124277089D01*
X109328796Y-123773642D01*
X109306563Y-123727688D01*
X109058416Y-123251519D01*
X108861175Y-122935488D01*
X108755806Y-122845923D01*
X108750287Y-122855842D01*
X86466863Y-122855842D01*
X86475613Y-122784064D01*
X86455600Y-122529101D01*
X86335598Y-122493700D01*
X86323195Y-122498689D01*
X86170397Y-122708421D01*
X86078657Y-123089244D01*
X85977644Y-123483215D01*
X85716948Y-123698461D01*
X85540292Y-123769241D01*
X85406962Y-123916489D01*
X85387612Y-123967529D01*
X85206012Y-123976288D01*
X85156154Y-123941230D01*
X85046393Y-123687788D01*
X85008158Y-123323882D01*
X85046338Y-122989584D01*
X85165822Y-122824964D01*
X85249520Y-122861013D01*
X85278700Y-123092052D01*
X85272894Y-123135156D01*
X85327604Y-123430674D01*
X85515110Y-123477803D01*
X85736954Y-123243914D01*
X85838325Y-122940148D01*
X85745020Y-122508430D01*
X85632215Y-122215652D01*
X85565177Y-121883294D01*
X85607086Y-121713617D01*
X85756807Y-121776934D01*
X85766488Y-121786217D01*
X86022135Y-121853975D01*
X86264052Y-121698705D01*
X86362608Y-121420500D01*
X86853797Y-121420500D01*
X86876930Y-121535328D01*
X87014557Y-121571772D01*
X87058460Y-121538868D01*
X87175316Y-121321145D01*
X87170715Y-121285255D01*
X87014557Y-121169873D01*
X86937729Y-121200547D01*
X86853797Y-121420500D01*
X86362608Y-121420500D01*
X86371519Y-121395347D01*
X86370810Y-121376596D01*
X86250174Y-121248216D01*
X85889240Y-121274367D01*
X85757240Y-121297667D01*
X85482160Y-121286317D01*
X85406962Y-121119076D01*
X85479395Y-120859029D01*
X85634457Y-120757903D01*
X85768987Y-120887543D01*
X85770353Y-120891490D01*
X85908805Y-120984722D01*
X86110509Y-120870725D01*
X86292426Y-120626478D01*
X86371519Y-120328964D01*
X86367535Y-120240022D01*
X86349937Y-120211725D01*
X86773459Y-120211725D01*
X86806917Y-120426368D01*
X86829718Y-120443991D01*
X87014557Y-120433831D01*
X87036979Y-120432598D01*
X87156229Y-120245707D01*
X87156041Y-120003360D01*
X87031756Y-119883797D01*
X86888769Y-119968070D01*
X86773459Y-120211725D01*
X86349937Y-120211725D01*
X86268654Y-120081029D01*
X85969620Y-120110572D01*
X85737600Y-120136634D01*
X85585130Y-120022776D01*
X85533962Y-119702292D01*
X85561431Y-119120190D01*
X85491933Y-118832526D01*
X85260636Y-118768428D01*
X84945459Y-118959430D01*
X84866346Y-119029016D01*
X84798542Y-119004692D01*
X84850811Y-118716474D01*
X84896214Y-118501284D01*
X84863386Y-118345793D01*
X84661238Y-118383229D01*
X84659900Y-118383724D01*
X84270539Y-118642609D01*
X84128460Y-118999620D01*
X84191439Y-119026422D01*
X84367138Y-118848325D01*
X84500501Y-118678667D01*
X84589125Y-118645481D01*
X84603164Y-118893560D01*
X84554476Y-119126887D01*
X84362025Y-119343384D01*
X84250274Y-119410207D01*
X84120886Y-119644807D01*
X84188247Y-119755483D01*
X84410730Y-119775832D01*
X84652408Y-119681270D01*
X84768812Y-119503339D01*
X84807803Y-119451737D01*
X84938272Y-119603741D01*
X85013826Y-119791206D01*
X85004276Y-120045830D01*
X84974860Y-120129633D01*
X85031245Y-120406266D01*
X85155732Y-120670708D01*
X85171900Y-120911958D01*
X85032364Y-120965644D01*
X85024932Y-120962825D01*
X84881582Y-120763681D01*
X84793666Y-120390378D01*
X84743029Y-119876782D01*
X84231008Y-120234253D01*
X83777878Y-120583146D01*
X83546272Y-120864589D01*
X83480309Y-121149368D01*
X83514773Y-121278243D01*
X83687313Y-121196160D01*
X83783100Y-121138250D01*
X83877712Y-121224079D01*
X83912638Y-121581790D01*
X83911676Y-121798300D01*
X83844896Y-122054798D01*
X83662982Y-122097656D01*
X83479523Y-122136956D01*
X83343759Y-122433602D01*
X83346525Y-122686999D01*
X83481551Y-122694800D01*
X83601782Y-122681520D01*
X83564617Y-122918096D01*
X83534912Y-123174763D01*
X83708154Y-123259747D01*
X83829469Y-123282069D01*
X83960126Y-123439256D01*
X84024086Y-123531003D01*
X84281645Y-123534686D01*
X84524817Y-123532739D01*
X84603164Y-123757075D01*
X84631240Y-123929584D01*
X84763924Y-124063544D01*
X84802349Y-124068216D01*
X84924683Y-124224304D01*
X84900446Y-124329843D01*
X84742868Y-124390181D01*
X84534062Y-124276754D01*
X84387151Y-124030375D01*
X84302698Y-123827469D01*
X84188504Y-123781580D01*
X84066903Y-123791736D01*
X83827595Y-123632460D01*
X83647311Y-123495486D01*
X83511484Y-123560737D01*
X83479296Y-123622395D01*
X83314357Y-123659958D01*
X83269626Y-123641965D01*
X83068751Y-123739792D01*
X82873989Y-124056439D01*
X82724146Y-124511278D01*
X82658026Y-125023681D01*
X82657136Y-125062230D01*
X82637334Y-125444762D01*
X82597419Y-125532331D01*
X82527504Y-125349620D01*
X82413006Y-124947721D01*
X82297676Y-125396385D01*
X82176604Y-125688368D01*
X82046815Y-125761286D01*
X81971296Y-125775018D01*
X81871492Y-126003472D01*
X81804625Y-126404153D01*
X81783523Y-126886291D01*
X81821014Y-127359114D01*
X81821488Y-127362040D01*
X81842113Y-127778140D01*
X81730527Y-127921772D01*
X81663304Y-127907798D01*
X81537435Y-127720823D01*
X81532483Y-127682679D01*
X81471474Y-127685331D01*
X81375398Y-127877867D01*
X81284372Y-128163200D01*
X81238514Y-128444240D01*
X81270263Y-128595005D01*
X81468354Y-128725570D01*
X81561155Y-128747916D01*
X81672172Y-128949700D01*
X81698194Y-129408797D01*
X81679503Y-129801062D01*
X81630964Y-129913357D01*
X81537982Y-129770506D01*
X81525376Y-129745505D01*
X81470791Y-129741628D01*
X81462889Y-129964935D01*
X81495315Y-130337364D01*
X81561717Y-130780853D01*
X81655741Y-131217342D01*
X81739261Y-131538861D01*
X81502563Y-131217342D01*
X81345108Y-130965730D01*
X81172847Y-130574304D01*
X81124520Y-130434516D01*
X81110228Y-130482473D01*
X81139125Y-130719771D01*
X81200136Y-131075676D01*
X81282188Y-131479456D01*
X81340182Y-131719535D01*
X81374205Y-131860380D01*
X81436844Y-132214386D01*
X81466058Y-132726127D01*
X81451631Y-133255076D01*
X81399806Y-133716685D01*
X81316822Y-134026410D01*
X81208919Y-134099705D01*
X81112221Y-134131620D01*
X81047968Y-134382854D01*
X81035505Y-134476658D01*
X80980256Y-134436485D01*
X80894742Y-134111013D01*
X80876075Y-134013955D01*
X80819166Y-133488609D01*
X80835298Y-133066076D01*
X80838330Y-132832658D01*
X80801141Y-132616376D01*
X81260274Y-132616376D01*
X81281506Y-132945506D01*
X81337328Y-132972776D01*
X81362591Y-132744557D01*
X81340182Y-132523412D01*
X81281506Y-132543607D01*
X81260274Y-132616376D01*
X80801141Y-132616376D01*
X80753313Y-132338220D01*
X80586625Y-131782269D01*
X80571740Y-131741642D01*
X80469201Y-131439506D01*
X80744936Y-131439506D01*
X80790783Y-131804271D01*
X80905696Y-132021139D01*
X80909016Y-132023106D01*
X81022158Y-131954136D01*
X81066455Y-131638215D01*
X81020609Y-131273451D01*
X80905696Y-131056582D01*
X80902376Y-131054615D01*
X80789233Y-131123585D01*
X80744936Y-131439506D01*
X80469201Y-131439506D01*
X80359151Y-131115238D01*
X80278727Y-130740822D01*
X80327824Y-130580542D01*
X80503797Y-130596549D01*
X80646091Y-130613278D01*
X80744936Y-130430744D01*
X80724034Y-130303751D01*
X80584177Y-130172405D01*
X80582177Y-130172368D01*
X80469982Y-130028750D01*
X80427897Y-129722705D01*
X81099514Y-129722705D01*
X81120747Y-130051835D01*
X81176568Y-130079105D01*
X81201832Y-129850886D01*
X81179423Y-129629741D01*
X81120747Y-129649937D01*
X81099514Y-129722705D01*
X80427897Y-129722705D01*
X80423417Y-129690126D01*
X80423402Y-129683874D01*
X80370172Y-129347460D01*
X80244767Y-129207848D01*
X80136859Y-129343009D01*
X80152748Y-129730316D01*
X80176739Y-130188415D01*
X80111906Y-130574304D01*
X80062836Y-130835439D01*
X80119566Y-131257532D01*
X80175169Y-131493492D01*
X80104727Y-131619240D01*
X80090377Y-131614876D01*
X79965083Y-131427428D01*
X79794379Y-131018571D01*
X79610860Y-130464509D01*
X79598195Y-130422236D01*
X79399289Y-129810827D01*
X79204564Y-129293197D01*
X79134800Y-129146443D01*
X79458860Y-129146443D01*
X79497928Y-129392668D01*
X79608126Y-129456091D01*
X79720761Y-129482741D01*
X79827373Y-129727932D01*
X79854128Y-129851901D01*
X79888658Y-129885869D01*
X79900598Y-129609747D01*
X79900695Y-129558211D01*
X79861957Y-129016230D01*
X79759339Y-128698496D01*
X79607453Y-128652709D01*
X79512225Y-128805550D01*
X79458860Y-129146443D01*
X79134800Y-129146443D01*
X79054480Y-128977483D01*
X78949529Y-128790749D01*
X78813189Y-128449681D01*
X79964649Y-128449681D01*
X79996450Y-128768819D01*
X80002857Y-128783151D01*
X80053182Y-128758979D01*
X80070558Y-128484430D01*
X80069498Y-128434508D01*
X80041666Y-128220983D01*
X79990493Y-128286540D01*
X79964649Y-128449681D01*
X78813189Y-128449681D01*
X78751169Y-128294532D01*
X78683931Y-128029586D01*
X79323614Y-128029586D01*
X79458860Y-128082532D01*
X79544101Y-128039848D01*
X79593117Y-127889842D01*
X80261081Y-127889842D01*
X80316767Y-128232507D01*
X80322825Y-128263039D01*
X80394072Y-128666005D01*
X80423417Y-128915911D01*
X80435541Y-128965470D01*
X80584177Y-128966709D01*
X80636005Y-128923097D01*
X80734730Y-128628513D01*
X80674574Y-128249239D01*
X80471412Y-127931083D01*
X80307427Y-127809184D01*
X80261081Y-127889842D01*
X79593117Y-127889842D01*
X79607453Y-127845969D01*
X79622081Y-127801202D01*
X79622601Y-127765163D01*
X79655797Y-127613225D01*
X79780379Y-127761013D01*
X79883100Y-127884888D01*
X79938677Y-127801202D01*
X79967250Y-127708393D01*
X80041666Y-127670968D01*
X80182278Y-127600253D01*
X80307427Y-127539353D01*
X80337185Y-127524872D01*
X80423417Y-127211502D01*
X80442483Y-126931666D01*
X80499420Y-126668275D01*
X81099514Y-126668275D01*
X81120747Y-126997405D01*
X81176568Y-127024675D01*
X81179423Y-126998885D01*
X81201832Y-126796456D01*
X81185542Y-126635696D01*
X81387974Y-126635696D01*
X81387978Y-126640779D01*
X81406443Y-126977978D01*
X81450108Y-127117975D01*
X81451102Y-127117914D01*
X81515479Y-126973771D01*
X81583025Y-126635696D01*
X81584915Y-126622479D01*
X81593397Y-126290746D01*
X81520891Y-126153418D01*
X81519331Y-126153451D01*
X81426505Y-126296960D01*
X81387974Y-126635696D01*
X81185542Y-126635696D01*
X81179423Y-126575311D01*
X81120747Y-126595506D01*
X81099514Y-126668275D01*
X80499420Y-126668275D01*
X80520996Y-126568464D01*
X80569254Y-126394342D01*
X80513149Y-126294777D01*
X80331196Y-126395019D01*
X80070168Y-126663605D01*
X79776839Y-127069068D01*
X79529955Y-127471674D01*
X79342628Y-127840894D01*
X79323614Y-128029586D01*
X78683931Y-128029586D01*
X78618298Y-127770965D01*
X78573952Y-127326495D01*
X78641165Y-127067568D01*
X78713427Y-126896244D01*
X78611364Y-126716076D01*
X79619620Y-126716076D01*
X79700000Y-126796456D01*
X79780379Y-126716076D01*
X79700000Y-126635696D01*
X79619620Y-126716076D01*
X78611364Y-126716076D01*
X78551014Y-126609542D01*
X78467115Y-126454506D01*
X78370652Y-125972769D01*
X78347085Y-125536572D01*
X79638631Y-125536572D01*
X79700000Y-125689504D01*
X79857704Y-126082502D01*
X79945594Y-126191966D01*
X80110537Y-126298276D01*
X80263965Y-126153418D01*
X80350226Y-125851607D01*
X80343920Y-125748288D01*
X81583080Y-125748288D01*
X81602320Y-125939072D01*
X81650674Y-125964222D01*
X81709493Y-125831899D01*
X81697892Y-125746793D01*
X81602320Y-125724726D01*
X81583080Y-125748288D01*
X80343920Y-125748288D01*
X80324493Y-125430000D01*
X80301584Y-125269240D01*
X81387974Y-125269240D01*
X81468354Y-125349620D01*
X81520891Y-125297083D01*
X81548734Y-125269240D01*
X81468354Y-125188861D01*
X81387974Y-125269240D01*
X80301584Y-125269240D01*
X80257998Y-124963381D01*
X80250624Y-124733269D01*
X81870253Y-124733269D01*
X81898075Y-124902465D01*
X82011607Y-124959714D01*
X82102381Y-124860656D01*
X82234551Y-124560356D01*
X82249509Y-124352480D01*
X82093196Y-124333911D01*
X81970529Y-124433105D01*
X81870253Y-124733269D01*
X80250624Y-124733269D01*
X80240435Y-124415344D01*
X80241985Y-124371032D01*
X80219484Y-124143924D01*
X81548734Y-124143924D01*
X81602320Y-124197511D01*
X81629113Y-124224304D01*
X81709493Y-124143924D01*
X81629113Y-124063544D01*
X81548734Y-124143924D01*
X80219484Y-124143924D01*
X80209779Y-124045969D01*
X80102581Y-123982742D01*
X79984059Y-124035321D01*
X79963275Y-123952793D01*
X80078805Y-123676393D01*
X80088075Y-123658414D01*
X81904599Y-123658414D01*
X81923839Y-123849198D01*
X81972193Y-123874348D01*
X82031012Y-123742025D01*
X82019411Y-123656920D01*
X81923839Y-123634852D01*
X81904599Y-123658414D01*
X80088075Y-123658414D01*
X80343038Y-123163930D01*
X80443068Y-122970685D01*
X80483539Y-122874539D01*
X82546435Y-122874539D01*
X82610611Y-123173943D01*
X82726762Y-123424307D01*
X82851958Y-123490287D01*
X82931850Y-123386199D01*
X82995569Y-123080012D01*
X82962533Y-122905758D01*
X82834810Y-122857848D01*
X82768354Y-122881190D01*
X82674050Y-122760163D01*
X82666537Y-122688322D01*
X82585847Y-122651326D01*
X82577165Y-122661441D01*
X82546435Y-122874539D01*
X80483539Y-122874539D01*
X80513149Y-122804197D01*
X80627265Y-122533098D01*
X81261561Y-122533098D01*
X81280801Y-122723882D01*
X81329155Y-122749032D01*
X81387974Y-122616709D01*
X81377017Y-122536329D01*
X81548734Y-122536329D01*
X81629113Y-122616709D01*
X81709493Y-122536329D01*
X81629113Y-122455949D01*
X81548734Y-122536329D01*
X81377017Y-122536329D01*
X81376373Y-122531603D01*
X81280801Y-122509536D01*
X81261561Y-122533098D01*
X80627265Y-122533098D01*
X80676908Y-122415163D01*
X80702270Y-122214810D01*
X81066455Y-122214810D01*
X81146835Y-122295190D01*
X81179423Y-122262602D01*
X81227215Y-122214810D01*
X81146835Y-122134430D01*
X81066455Y-122214810D01*
X80702270Y-122214810D01*
X80727814Y-122013022D01*
X80609598Y-121687780D01*
X80576595Y-121649632D01*
X80428966Y-121680378D01*
X80273808Y-121926453D01*
X80149945Y-122307921D01*
X80096202Y-122744843D01*
X80039090Y-123116267D01*
X79860759Y-123581266D01*
X79781197Y-123731405D01*
X79648640Y-124085522D01*
X79645444Y-124301429D01*
X79779893Y-124304984D01*
X79859737Y-124332515D01*
X79779893Y-124627481D01*
X79703755Y-124857214D01*
X79638631Y-125536572D01*
X78347085Y-125536572D01*
X78332885Y-125273759D01*
X78350188Y-124419418D01*
X78418935Y-123471690D01*
X78535502Y-122492515D01*
X78696263Y-121543836D01*
X78814333Y-121041692D01*
X80938755Y-121041692D01*
X80959987Y-121370823D01*
X81015809Y-121398092D01*
X81041072Y-121169873D01*
X81027041Y-121031408D01*
X82063314Y-121031408D01*
X82073147Y-121751042D01*
X82093196Y-122154548D01*
X82096520Y-122221447D01*
X82132850Y-122377130D01*
X82181808Y-122214810D01*
X82185015Y-122197251D01*
X82377789Y-122197251D01*
X82416165Y-122412410D01*
X82471043Y-122409921D01*
X82500599Y-122201413D01*
X82474856Y-122043395D01*
X82403474Y-122104288D01*
X82377789Y-122197251D01*
X82185015Y-122197251D01*
X82191777Y-122160235D01*
X82351899Y-121573854D01*
X82474856Y-121275335D01*
X82503323Y-121206221D01*
X82915012Y-121206221D01*
X83002590Y-121415352D01*
X83096976Y-121403497D01*
X83156329Y-121179361D01*
X83141304Y-120958951D01*
X83065131Y-120865392D01*
X82939410Y-121084345D01*
X82915012Y-121206221D01*
X82503323Y-121206221D01*
X82569953Y-121044456D01*
X82585847Y-121010952D01*
X82720525Y-120727060D01*
X82751467Y-120483396D01*
X82619444Y-120288504D01*
X82467418Y-120174027D01*
X82291289Y-120159385D01*
X82237647Y-120170485D01*
X82191772Y-119990970D01*
X82214172Y-119854966D01*
X82271622Y-119800186D01*
X83672954Y-119800186D01*
X83692194Y-119990970D01*
X83740547Y-120016121D01*
X83799367Y-119883797D01*
X83787765Y-119798692D01*
X83692194Y-119776624D01*
X83672954Y-119800186D01*
X82271622Y-119800186D01*
X82352531Y-119723038D01*
X82438885Y-119680592D01*
X82524590Y-119441709D01*
X82528936Y-119351554D01*
X82559046Y-119251612D01*
X82650409Y-119450678D01*
X82737303Y-119624992D01*
X82867349Y-119631279D01*
X83065131Y-119475498D01*
X83129364Y-119424905D01*
X83242499Y-119306968D01*
X83340320Y-119064847D01*
X83237189Y-118938331D01*
X82968250Y-119016504D01*
X82858334Y-119044100D01*
X82887870Y-118852084D01*
X82895675Y-118821302D01*
X83824625Y-118821302D01*
X83863001Y-119036461D01*
X83917878Y-119033972D01*
X83947435Y-118825464D01*
X83921692Y-118667446D01*
X83850309Y-118728338D01*
X83824625Y-118821302D01*
X82895675Y-118821302D01*
X82956628Y-118580904D01*
X83001266Y-118142485D01*
X83006962Y-117713544D01*
X83218230Y-118094608D01*
X83281344Y-118206892D01*
X83391723Y-118349462D01*
X83459167Y-118244651D01*
X83529845Y-117857300D01*
X83545081Y-117746441D01*
X83545695Y-117710313D01*
X84476751Y-117710313D01*
X84495991Y-117901097D01*
X84544345Y-117926247D01*
X84597761Y-117806078D01*
X84763924Y-117806078D01*
X84797650Y-117863568D01*
X85005063Y-117852059D01*
X85151392Y-117836657D01*
X85246202Y-118027351D01*
X85271906Y-118156290D01*
X85406962Y-118195823D01*
X85454363Y-118160678D01*
X85464832Y-118140411D01*
X85653780Y-118140411D01*
X85747557Y-118557463D01*
X85812156Y-118925631D01*
X85784760Y-119401450D01*
X85768504Y-119772903D01*
X85906685Y-119874756D01*
X86178607Y-119690886D01*
X86291372Y-119513105D01*
X86309664Y-119430691D01*
X86532278Y-119430691D01*
X86563811Y-119596279D01*
X86692173Y-119643192D01*
X86733444Y-119614148D01*
X86943117Y-119364215D01*
X87031756Y-119164958D01*
X87076169Y-119065119D01*
X87063882Y-118861393D01*
X87009806Y-118828779D01*
X86806723Y-118894138D01*
X86616442Y-119128086D01*
X86532278Y-119430691D01*
X86309664Y-119430691D01*
X86364507Y-119183589D01*
X86331675Y-118887188D01*
X86191075Y-118758481D01*
X86092787Y-118722325D01*
X86126220Y-118660542D01*
X87522093Y-118660542D01*
X87560469Y-118875701D01*
X87615346Y-118873212D01*
X87644903Y-118664705D01*
X87619160Y-118506686D01*
X87547777Y-118567579D01*
X87522093Y-118660542D01*
X86126220Y-118660542D01*
X86190507Y-118541744D01*
X86197416Y-118533282D01*
X86265470Y-118308494D01*
X86066104Y-118049638D01*
X85940602Y-117954044D01*
X85727028Y-117925083D01*
X85653780Y-118140411D01*
X85464832Y-118140411D01*
X85544908Y-117985386D01*
X85538184Y-117949113D01*
X85491503Y-117664181D01*
X85438692Y-117323781D01*
X86305780Y-117323781D01*
X86416860Y-117458295D01*
X86543695Y-117528021D01*
X86796719Y-117774440D01*
X86889166Y-118005704D01*
X86716339Y-118225526D01*
X86562227Y-118380735D01*
X86621513Y-118427174D01*
X86837685Y-118360321D01*
X87009806Y-118261326D01*
X87139546Y-118186707D01*
X87139962Y-118186415D01*
X87416455Y-117928518D01*
X87417601Y-117927449D01*
X87491564Y-117718835D01*
X87336076Y-117633164D01*
X87239140Y-117563696D01*
X87175316Y-117291961D01*
X87174615Y-117237109D01*
X87123077Y-117051402D01*
X86949810Y-117137912D01*
X86767844Y-117241260D01*
X86640530Y-117117406D01*
X86544724Y-117002715D01*
X86388909Y-117150886D01*
X86305780Y-117323781D01*
X85438692Y-117323781D01*
X85424339Y-117231266D01*
X85395509Y-117070684D01*
X85389602Y-117052947D01*
X85914498Y-117052947D01*
X85952874Y-117268106D01*
X86007751Y-117265617D01*
X86037308Y-117057110D01*
X86011565Y-116899091D01*
X85940182Y-116959984D01*
X85914498Y-117052947D01*
X85389602Y-117052947D01*
X85301749Y-116789129D01*
X85205491Y-116774670D01*
X85160411Y-116890888D01*
X85181980Y-117215403D01*
X85200578Y-117364644D01*
X85021742Y-117568629D01*
X84892418Y-117637067D01*
X84763924Y-117806078D01*
X84597761Y-117806078D01*
X84603164Y-117793924D01*
X84591562Y-117708818D01*
X84495991Y-117686751D01*
X84476751Y-117710313D01*
X83545695Y-117710313D01*
X83549580Y-117481892D01*
X83799367Y-117481892D01*
X83803968Y-117517783D01*
X83921692Y-117604766D01*
X83960126Y-117633164D01*
X84036953Y-117602491D01*
X84120886Y-117382538D01*
X84097752Y-117267710D01*
X83960126Y-117231266D01*
X83916222Y-117264170D01*
X83799367Y-117481892D01*
X83549580Y-117481892D01*
X83552141Y-117331292D01*
X83477466Y-117086200D01*
X83464663Y-117072130D01*
X83437730Y-116842857D01*
X83508872Y-116745756D01*
X84798270Y-116745756D01*
X84817510Y-116936540D01*
X84865864Y-116961690D01*
X84924683Y-116829367D01*
X84913081Y-116744261D01*
X84817510Y-116722194D01*
X84798270Y-116745756D01*
X83508872Y-116745756D01*
X83606389Y-116612655D01*
X83692194Y-116580053D01*
X83882231Y-116507848D01*
X83960126Y-116485175D01*
X83987712Y-116477146D01*
X84284107Y-116477146D01*
X84284651Y-116513703D01*
X84317556Y-116658498D01*
X84378469Y-116584997D01*
X87691941Y-116584997D01*
X87711181Y-116775780D01*
X87759535Y-116800931D01*
X87818354Y-116668607D01*
X87806752Y-116583502D01*
X87711181Y-116561434D01*
X87691941Y-116584997D01*
X84378469Y-116584997D01*
X84442405Y-116507848D01*
X84480017Y-116436956D01*
X85728481Y-116436956D01*
X85732660Y-116452999D01*
X85889240Y-116507848D01*
X85933302Y-116501306D01*
X85979174Y-116436956D01*
X87175316Y-116436956D01*
X87179496Y-116452999D01*
X87336076Y-116507848D01*
X87380138Y-116501306D01*
X87496835Y-116337601D01*
X87484213Y-116279455D01*
X87336076Y-116266709D01*
X87287966Y-116299704D01*
X87175316Y-116436956D01*
X85979174Y-116436956D01*
X86011565Y-116391518D01*
X86050000Y-116337601D01*
X86037377Y-116279455D01*
X85889240Y-116266709D01*
X85841131Y-116299704D01*
X85728481Y-116436956D01*
X84480017Y-116436956D01*
X84495991Y-116406847D01*
X84560813Y-116284669D01*
X84583216Y-116102718D01*
X85441308Y-116102718D01*
X85460548Y-116293502D01*
X85508902Y-116318652D01*
X85567721Y-116186329D01*
X85556763Y-116105949D01*
X86371519Y-116105949D01*
X86378502Y-116215815D01*
X86434699Y-116347088D01*
X86476308Y-116317471D01*
X86544724Y-116190645D01*
X86590413Y-116105949D01*
X86615685Y-115982648D01*
X86594689Y-115954677D01*
X87014557Y-115954677D01*
X87018736Y-115970721D01*
X87175316Y-116025570D01*
X87219378Y-116019027D01*
X87336076Y-115855322D01*
X87323453Y-115797176D01*
X87175316Y-115784430D01*
X87127207Y-115817426D01*
X87014557Y-115954677D01*
X86594689Y-115954677D01*
X86527233Y-115864810D01*
X86455649Y-115891975D01*
X86371519Y-116105949D01*
X85556763Y-116105949D01*
X85556119Y-116101223D01*
X85460548Y-116079156D01*
X85441308Y-116102718D01*
X84583216Y-116102718D01*
X84584415Y-116092977D01*
X84442405Y-116105949D01*
X84366024Y-116186474D01*
X84284107Y-116477146D01*
X83987712Y-116477146D01*
X83994776Y-116475090D01*
X84184066Y-116253561D01*
X84232976Y-116122231D01*
X84281645Y-115970712D01*
X84212858Y-115909918D01*
X84159582Y-115874298D01*
X84924683Y-115874298D01*
X84937305Y-115932444D01*
X85085443Y-115945190D01*
X85133552Y-115912194D01*
X85205491Y-115824545D01*
X85246202Y-115774943D01*
X85242022Y-115758899D01*
X85139612Y-115723026D01*
X86050000Y-115723026D01*
X86062385Y-115777082D01*
X86210759Y-115784430D01*
X86254204Y-115751578D01*
X86371519Y-115524316D01*
X86359133Y-115470260D01*
X86210759Y-115462911D01*
X86532278Y-115462911D01*
X86612658Y-115543291D01*
X86693038Y-115462911D01*
X86612658Y-115382532D01*
X86532278Y-115462911D01*
X86210759Y-115462911D01*
X86167314Y-115495763D01*
X86050000Y-115723026D01*
X85139612Y-115723026D01*
X85085443Y-115704051D01*
X85041380Y-115710593D01*
X84924683Y-115874298D01*
X84159582Y-115874298D01*
X83969528Y-115747230D01*
X83881888Y-115695384D01*
X83674217Y-115655762D01*
X83553275Y-115880414D01*
X83495867Y-116044871D01*
X83397652Y-116113748D01*
X83210432Y-115916095D01*
X83072199Y-115764568D01*
X83054874Y-115794459D01*
X83061965Y-115815333D01*
X83013693Y-116076926D01*
X82826716Y-116437497D01*
X82810195Y-116463031D01*
X82604286Y-116879414D01*
X82524540Y-117231266D01*
X82531805Y-117380585D01*
X82570939Y-117431339D01*
X82679060Y-117191076D01*
X82702314Y-117134910D01*
X82848416Y-116870187D01*
X82919840Y-116878320D01*
X82877832Y-117164492D01*
X82785624Y-117373021D01*
X82560822Y-117587635D01*
X82480101Y-117636828D01*
X82397931Y-117864604D01*
X82439937Y-118317792D01*
X82459766Y-118445962D01*
X82475144Y-118796742D01*
X82386944Y-118860129D01*
X82348186Y-118839790D01*
X82227048Y-118855365D01*
X82143445Y-119045727D01*
X82091924Y-119447464D01*
X82067031Y-120097162D01*
X82063314Y-121031408D01*
X81027041Y-121031408D01*
X81018663Y-120948729D01*
X80959987Y-120968924D01*
X80938755Y-121041692D01*
X78814333Y-121041692D01*
X78897593Y-120687595D01*
X78930732Y-120553843D01*
X80850637Y-120553843D01*
X80902376Y-120643307D01*
X80927989Y-120687595D01*
X81018663Y-120588307D01*
X81019012Y-120587925D01*
X81066455Y-120285696D01*
X81051209Y-120021796D01*
X81004816Y-119883797D01*
X80944869Y-119984493D01*
X80866350Y-120285696D01*
X80850637Y-120553843D01*
X78930732Y-120553843D01*
X79036998Y-120124937D01*
X80584177Y-120124937D01*
X80664557Y-120205316D01*
X80744936Y-120124937D01*
X80664557Y-120044557D01*
X80584177Y-120124937D01*
X79036998Y-120124937D01*
X79235095Y-119325393D01*
X80293705Y-119325393D01*
X80366109Y-119323980D01*
X80471946Y-119160380D01*
X81709493Y-119160380D01*
X81789873Y-119240759D01*
X81870253Y-119160380D01*
X81789873Y-119080000D01*
X81709493Y-119160380D01*
X80471946Y-119160380D01*
X80493461Y-119127123D01*
X80504906Y-119096624D01*
X80538636Y-118935540D01*
X80403469Y-119037131D01*
X80311737Y-119155332D01*
X80293705Y-119325393D01*
X79235095Y-119325393D01*
X79361791Y-118814031D01*
X79664758Y-117090232D01*
X79720041Y-116427468D01*
X82352531Y-116427468D01*
X82432911Y-116507848D01*
X82513291Y-116427468D01*
X82432911Y-116347088D01*
X82352531Y-116427468D01*
X79720041Y-116427468D01*
X79789869Y-115590317D01*
X79803906Y-115298921D01*
X83351435Y-115298921D01*
X83370675Y-115489705D01*
X83419028Y-115514855D01*
X83477848Y-115382532D01*
X83466246Y-115297426D01*
X83370675Y-115275359D01*
X83351435Y-115298921D01*
X79803906Y-115298921D01*
X79820814Y-114947916D01*
X79831102Y-114819873D01*
X82357455Y-114819873D01*
X82385909Y-114868169D01*
X82432911Y-114820690D01*
X82513291Y-114739494D01*
X82589083Y-114601783D01*
X82643839Y-114421058D01*
X83370996Y-114421058D01*
X83442609Y-114729281D01*
X83575036Y-115087267D01*
X83674217Y-114869589D01*
X83764135Y-114672241D01*
X83940086Y-114387916D01*
X84123095Y-114257215D01*
X84210870Y-114313507D01*
X84126519Y-114568208D01*
X84054633Y-114771440D01*
X84115716Y-115288556D01*
X84191648Y-115446866D01*
X84408499Y-115605042D01*
X84584415Y-115549305D01*
X84726706Y-115504222D01*
X84817510Y-115431642D01*
X84979515Y-115302152D01*
X85728481Y-115302152D01*
X85808860Y-115382532D01*
X85879753Y-115311639D01*
X87014557Y-115311639D01*
X87018736Y-115327683D01*
X87175316Y-115382532D01*
X87219378Y-115375989D01*
X87336076Y-115212285D01*
X87323453Y-115154138D01*
X87175316Y-115141392D01*
X87127207Y-115174388D01*
X87014557Y-115311639D01*
X85879753Y-115311639D01*
X85889240Y-115302152D01*
X85808860Y-115221772D01*
X85728481Y-115302152D01*
X84979515Y-115302152D01*
X85085443Y-115217484D01*
X85183360Y-115139219D01*
X85194056Y-115129223D01*
X85435023Y-114846667D01*
X86746624Y-114846667D01*
X86770186Y-114865906D01*
X86960970Y-114846667D01*
X86986120Y-114798313D01*
X86853797Y-114739494D01*
X86768691Y-114751095D01*
X86746624Y-114846667D01*
X85435023Y-114846667D01*
X85458328Y-114819340D01*
X85460548Y-114814246D01*
X85567721Y-114568338D01*
X85548923Y-114498354D01*
X85889240Y-114498354D01*
X85969620Y-114578734D01*
X86050000Y-114498354D01*
X85988595Y-114436950D01*
X86532278Y-114436950D01*
X86544664Y-114491006D01*
X86612658Y-114494373D01*
X86693038Y-114498354D01*
X86736482Y-114465502D01*
X86853797Y-114238240D01*
X86841411Y-114184184D01*
X86693038Y-114176835D01*
X86649593Y-114209687D01*
X86532278Y-114436950D01*
X85988595Y-114436950D01*
X85969620Y-114417975D01*
X85889240Y-114498354D01*
X85548923Y-114498354D01*
X85533189Y-114439780D01*
X85374810Y-114546582D01*
X85304371Y-114607218D01*
X84946822Y-114737335D01*
X84599626Y-114668486D01*
X84395867Y-114418135D01*
X84374326Y-114214672D01*
X84457497Y-114006748D01*
X84464735Y-113998706D01*
X84932745Y-113998706D01*
X84944476Y-114291395D01*
X85066693Y-114417975D01*
X85177334Y-114337466D01*
X85280702Y-114110915D01*
X85574209Y-114110915D01*
X85598861Y-114238356D01*
X85727028Y-114153665D01*
X85790318Y-114111844D01*
X85808860Y-114096002D01*
X85815441Y-114090379D01*
X85969620Y-113898728D01*
X86012331Y-113845636D01*
X86017581Y-113784424D01*
X86532278Y-113784424D01*
X86544900Y-113842570D01*
X86693038Y-113855316D01*
X86741147Y-113822321D01*
X86853797Y-113685069D01*
X86849617Y-113669026D01*
X86693038Y-113614177D01*
X86648975Y-113620719D01*
X86532278Y-113784424D01*
X86017581Y-113784424D01*
X86027346Y-113670571D01*
X85849050Y-113654292D01*
X85732209Y-113737603D01*
X85589369Y-114024280D01*
X85574209Y-114110915D01*
X85280702Y-114110915D01*
X85305637Y-114056266D01*
X85322938Y-113990503D01*
X85408914Y-113537973D01*
X85357549Y-113363286D01*
X85165822Y-113453418D01*
X85018081Y-113670483D01*
X84932745Y-113998706D01*
X84464735Y-113998706D01*
X84526786Y-113929759D01*
X84597128Y-113644879D01*
X84560203Y-113561464D01*
X84378946Y-113656426D01*
X84036862Y-114016076D01*
X83807699Y-114261247D01*
X83572401Y-114450518D01*
X83480239Y-114431371D01*
X83469397Y-114334940D01*
X83394014Y-114287462D01*
X83370996Y-114421058D01*
X82643839Y-114421058D01*
X82669127Y-114337595D01*
X82640672Y-114289299D01*
X82513291Y-114417975D01*
X82437498Y-114555685D01*
X82357455Y-114819873D01*
X79831102Y-114819873D01*
X79890086Y-114085745D01*
X79933851Y-113694557D01*
X82191772Y-113694557D01*
X82272151Y-113774937D01*
X82352531Y-113694557D01*
X82513291Y-113694557D01*
X82593670Y-113774937D01*
X82640672Y-113727935D01*
X82674050Y-113694557D01*
X82593670Y-113614177D01*
X82513291Y-113694557D01*
X82352531Y-113694557D01*
X82272151Y-113614177D01*
X82191772Y-113694557D01*
X79933851Y-113694557D01*
X79979233Y-113288916D01*
X80018076Y-112990114D01*
X81387974Y-112990114D01*
X81400360Y-113044170D01*
X81468354Y-113047538D01*
X81548734Y-113051519D01*
X81548913Y-113051384D01*
X84330795Y-113051384D01*
X84347545Y-113251385D01*
X84384158Y-113270362D01*
X84560203Y-113226862D01*
X84592469Y-113218889D01*
X84599892Y-113214116D01*
X84674447Y-113103373D01*
X85755812Y-113103373D01*
X85766310Y-113262457D01*
X85849050Y-113274748D01*
X85969620Y-113292658D01*
X86110241Y-113232983D01*
X86114547Y-113221766D01*
X86532278Y-113221766D01*
X86536458Y-113237809D01*
X86693038Y-113292658D01*
X86737100Y-113286116D01*
X86853797Y-113122411D01*
X86841175Y-113064265D01*
X86693038Y-113051519D01*
X86644928Y-113084514D01*
X86532278Y-113221766D01*
X86114547Y-113221766D01*
X86210759Y-112971139D01*
X86158556Y-112727278D01*
X85999213Y-112670191D01*
X85826060Y-112903907D01*
X85755812Y-113103373D01*
X84674447Y-113103373D01*
X84738529Y-113008187D01*
X84747991Y-112766182D01*
X84620364Y-112649620D01*
X84609571Y-112650316D01*
X84445385Y-112790925D01*
X84330795Y-113051384D01*
X81548913Y-113051384D01*
X81592179Y-113018667D01*
X81629113Y-112947118D01*
X81648411Y-112909734D01*
X83960126Y-112909734D01*
X83970593Y-112931724D01*
X84120886Y-112890759D01*
X84168474Y-112857732D01*
X84281645Y-112711025D01*
X84271178Y-112689035D01*
X84120886Y-112730000D01*
X84073298Y-112763028D01*
X83960126Y-112909734D01*
X81648411Y-112909734D01*
X81709493Y-112791405D01*
X81697108Y-112737349D01*
X81548734Y-112730000D01*
X81505289Y-112762852D01*
X81387974Y-112990114D01*
X80018076Y-112990114D01*
X80030001Y-112898378D01*
X80052170Y-112645794D01*
X85435774Y-112645794D01*
X85480317Y-112667711D01*
X85707729Y-112572522D01*
X85940549Y-112405330D01*
X86730971Y-112405330D01*
X86734411Y-112583821D01*
X86814755Y-112580890D01*
X87011332Y-112412366D01*
X87108530Y-112259194D01*
X87043728Y-112167342D01*
X86893190Y-112219740D01*
X86730971Y-112405330D01*
X85940549Y-112405330D01*
X85999213Y-112363202D01*
X86050000Y-112326731D01*
X86527233Y-111933277D01*
X86612658Y-111862849D01*
X86150434Y-111910299D01*
X86136605Y-111911831D01*
X85736371Y-112059005D01*
X85472791Y-112334503D01*
X85435774Y-112645794D01*
X80052170Y-112645794D01*
X80072980Y-112408703D01*
X80045387Y-112074347D01*
X79932572Y-111791897D01*
X79907551Y-111752608D01*
X85012241Y-111752608D01*
X85025678Y-111921956D01*
X85139015Y-112080590D01*
X85345356Y-111991001D01*
X85357549Y-111978066D01*
X85489572Y-111838007D01*
X85512351Y-111765443D01*
X87014557Y-111765443D01*
X87043728Y-111794614D01*
X87094936Y-111845823D01*
X87175316Y-111765443D01*
X87094936Y-111685063D01*
X87014557Y-111765443D01*
X85512351Y-111765443D01*
X85558350Y-111618910D01*
X85406962Y-111524304D01*
X85362899Y-111530846D01*
X85246202Y-111694551D01*
X85234092Y-111752077D01*
X85087284Y-111766581D01*
X85012241Y-111752608D01*
X79907551Y-111752608D01*
X79719889Y-111457939D01*
X79612374Y-111293105D01*
X85604455Y-111293105D01*
X85722437Y-111259240D01*
X85768831Y-111193736D01*
X86407612Y-111193736D01*
X86593654Y-111056459D01*
X86612658Y-111033595D01*
X86693038Y-110936888D01*
X86743035Y-110876735D01*
X86787754Y-110619519D01*
X86768257Y-110524509D01*
X86860818Y-110314268D01*
X86872269Y-110307016D01*
X87004667Y-110106550D01*
X86879218Y-109791577D01*
X86855230Y-109758518D01*
X86718649Y-109746475D01*
X86547256Y-110028415D01*
X86437019Y-110366751D01*
X86518088Y-110528224D01*
X86604744Y-110634367D01*
X86504674Y-110934424D01*
X86418509Y-111102294D01*
X86407612Y-111193736D01*
X85768831Y-111193736D01*
X85894994Y-111015604D01*
X86001095Y-110801045D01*
X85996084Y-110738974D01*
X85797019Y-110917628D01*
X85630232Y-111124510D01*
X85604455Y-111293105D01*
X79612374Y-111293105D01*
X79594983Y-111266443D01*
X79382229Y-110893906D01*
X79298101Y-110671279D01*
X79293075Y-110623508D01*
X79202806Y-110601455D01*
X79129894Y-110604720D01*
X78822176Y-110498341D01*
X78339670Y-110277882D01*
X77805750Y-110006576D01*
X80262658Y-110006576D01*
X80285791Y-110121404D01*
X80423417Y-110157848D01*
X80467321Y-110124944D01*
X80538636Y-109992072D01*
X80545964Y-109978419D01*
X81603360Y-109978419D01*
X81690518Y-110077468D01*
X81737672Y-110071466D01*
X81789873Y-110033532D01*
X81923839Y-109936179D01*
X81950632Y-109916709D01*
X81976386Y-109854998D01*
X81889228Y-109755949D01*
X81842074Y-109761951D01*
X81629113Y-109916709D01*
X81603360Y-109978419D01*
X80545964Y-109978419D01*
X80576595Y-109921348D01*
X80584177Y-109907221D01*
X80579575Y-109871331D01*
X80423417Y-109755949D01*
X80346590Y-109786623D01*
X80262658Y-110006576D01*
X77805750Y-110006576D01*
X77746260Y-109976347D01*
X77105825Y-109626742D01*
X76482247Y-109262073D01*
X76349890Y-109177533D01*
X87505416Y-109177533D01*
X87619160Y-109252164D01*
X87651938Y-109273671D01*
X87711181Y-109243191D01*
X87782474Y-109206512D01*
X87979113Y-108952152D01*
X88056938Y-108702714D01*
X87946795Y-108641798D01*
X87689746Y-108823544D01*
X87585882Y-108945398D01*
X87505416Y-109177533D01*
X76349890Y-109177533D01*
X75939407Y-108915346D01*
X74991923Y-108180190D01*
X74063702Y-107264177D01*
X84603164Y-107264177D01*
X84620364Y-107281377D01*
X84683544Y-107344557D01*
X84729794Y-107298307D01*
X101776455Y-107298307D01*
X102287142Y-108309972D01*
X102477480Y-108665642D01*
X102841606Y-109305156D01*
X103306901Y-110094651D01*
X103833419Y-110966538D01*
X104381213Y-111853227D01*
X104605763Y-112213614D01*
X105521988Y-113717442D01*
X106288173Y-115033436D01*
X106894426Y-116143638D01*
X107330859Y-117030090D01*
X107587580Y-117674835D01*
X107622384Y-117780094D01*
X107786394Y-118122066D01*
X107930485Y-118144603D01*
X108055338Y-117847176D01*
X108161637Y-117229257D01*
X108201323Y-116871919D01*
X108203419Y-116491620D01*
X108108414Y-116250564D01*
X107891559Y-116039751D01*
X107511392Y-115731363D01*
X107865629Y-115353590D01*
X108219866Y-114975817D01*
X107828173Y-114335187D01*
X107806914Y-114300208D01*
X107421803Y-113616762D01*
X106988747Y-112777227D01*
X106574654Y-111915660D01*
X106246434Y-111166115D01*
X106242880Y-111157435D01*
X105945978Y-110683615D01*
X105520323Y-110282343D01*
X105059704Y-110023767D01*
X104657911Y-109978033D01*
X104503344Y-109998656D01*
X104366320Y-109941848D01*
X104366178Y-109940397D01*
X104344098Y-109716228D01*
X104305989Y-109331119D01*
X104227668Y-109023942D01*
X104003903Y-108505852D01*
X103695508Y-107964663D01*
X103434565Y-107557750D01*
X103090746Y-107005992D01*
X102837001Y-106580949D01*
X102786490Y-106494857D01*
X102574872Y-106184128D01*
X102437222Y-106058481D01*
X102402715Y-106078392D01*
X102249801Y-106296734D01*
X102055997Y-106678394D01*
X101776455Y-107298307D01*
X84729794Y-107298307D01*
X84763924Y-107264177D01*
X84683544Y-107183797D01*
X84603164Y-107264177D01*
X74063702Y-107264177D01*
X73917779Y-107120173D01*
X73796548Y-106969451D01*
X80798523Y-106969451D01*
X80822085Y-106988691D01*
X81004816Y-106970263D01*
X81012869Y-106969451D01*
X81038019Y-106921098D01*
X80905696Y-106862278D01*
X80820590Y-106873880D01*
X80798523Y-106969451D01*
X73796548Y-106969451D01*
X72965156Y-105935817D01*
X72584533Y-105327258D01*
X87242158Y-105327258D01*
X87408106Y-105316022D01*
X87524963Y-105264132D01*
X87652388Y-105145585D01*
X87506323Y-105093924D01*
X87462659Y-105099637D01*
X87256834Y-105252842D01*
X87242158Y-105327258D01*
X72584533Y-105327258D01*
X72388321Y-105013544D01*
X83317088Y-105013544D01*
X83370675Y-105067131D01*
X83397468Y-105093924D01*
X83477848Y-105013544D01*
X83397468Y-104933164D01*
X83317088Y-105013544D01*
X72388321Y-105013544D01*
X72194701Y-104703975D01*
X71919054Y-104075780D01*
X91247890Y-104075780D01*
X91271452Y-104095020D01*
X91462236Y-104075780D01*
X91487386Y-104027427D01*
X91355063Y-103968607D01*
X91269957Y-103980209D01*
X91247890Y-104075780D01*
X71919054Y-104075780D01*
X71667064Y-103501500D01*
X71646736Y-103432743D01*
X87871940Y-103432743D01*
X87895503Y-103451982D01*
X87946795Y-103446810D01*
X88086286Y-103432743D01*
X88111437Y-103384389D01*
X87979113Y-103325570D01*
X87894008Y-103337171D01*
X87871940Y-103432743D01*
X71646736Y-103432743D01*
X71588981Y-103237390D01*
X71566689Y-103103405D01*
X85728481Y-103103405D01*
X85738947Y-103125395D01*
X85889240Y-103084430D01*
X85936828Y-103051402D01*
X85996084Y-102974588D01*
X86050000Y-102904696D01*
X86039533Y-102882706D01*
X85889240Y-102923671D01*
X85841652Y-102956699D01*
X85728481Y-103103405D01*
X71566689Y-103103405D01*
X71456543Y-102441392D01*
X92319620Y-102441392D01*
X92400000Y-102521772D01*
X92480379Y-102441392D01*
X92400000Y-102361013D01*
X92319620Y-102441392D01*
X71456543Y-102441392D01*
X71448987Y-102395975D01*
X71454710Y-101578578D01*
X71542209Y-101155293D01*
X88524611Y-101155293D01*
X88683556Y-101235696D01*
X88792141Y-101221240D01*
X89024050Y-101074937D01*
X89041211Y-100994580D01*
X88882266Y-100914177D01*
X88773681Y-100928633D01*
X88541772Y-101074937D01*
X88524611Y-101155293D01*
X71542209Y-101155293D01*
X71600025Y-100875601D01*
X71878803Y-100377450D01*
X71917710Y-100347657D01*
X89152418Y-100347657D01*
X89192351Y-100424159D01*
X89493181Y-100334319D01*
X89618989Y-100267115D01*
X89747468Y-100093180D01*
X89704034Y-99977622D01*
X89515940Y-99983490D01*
X89265189Y-100190759D01*
X89152418Y-100347657D01*
X71917710Y-100347657D01*
X72262501Y-100083634D01*
X72987046Y-99772586D01*
X73901016Y-99553033D01*
X74934279Y-99436078D01*
X76016701Y-99432823D01*
X77078148Y-99554370D01*
X77622356Y-99654121D01*
X78565769Y-99826488D01*
X79268181Y-99946695D01*
X79781272Y-100015443D01*
X80156719Y-100033432D01*
X80423417Y-100003886D01*
X80446202Y-100001362D01*
X80664557Y-99931691D01*
X80701400Y-99919935D01*
X80905696Y-99822441D01*
X80973991Y-99789849D01*
X81146835Y-99699779D01*
X81280801Y-99629969D01*
X81315654Y-99611807D01*
X81490482Y-99523995D01*
X81548734Y-99499657D01*
X81889228Y-99357399D01*
X82099104Y-99269713D01*
X82272151Y-99247689D01*
X82518613Y-99216321D01*
X82593670Y-99256336D01*
X82802055Y-99367432D01*
X83002480Y-99726657D01*
X83150005Y-99995763D01*
X83277401Y-100042894D01*
X83287018Y-100029677D01*
X83332723Y-99869240D01*
X97142405Y-99869240D01*
X97222784Y-99949620D01*
X97303164Y-99869240D01*
X97222784Y-99788861D01*
X97142405Y-99869240D01*
X83332723Y-99869240D01*
X83360052Y-99773309D01*
X83397468Y-99555137D01*
X83410898Y-99476829D01*
X86210759Y-99476829D01*
X86223381Y-99534976D01*
X86371519Y-99547721D01*
X86419628Y-99514726D01*
X86532278Y-99377474D01*
X86528098Y-99361431D01*
X86371519Y-99306582D01*
X86327456Y-99313124D01*
X86210759Y-99476829D01*
X83410898Y-99476829D01*
X83448253Y-99259011D01*
X83545306Y-98541114D01*
X83577404Y-98261645D01*
X84120886Y-98261645D01*
X84201265Y-98342025D01*
X84271178Y-98272112D01*
X84281645Y-98261645D01*
X84201265Y-98181266D01*
X84120886Y-98261645D01*
X83577404Y-98261645D01*
X83608317Y-97992488D01*
X88825422Y-97992488D01*
X88882266Y-97998823D01*
X89054753Y-98018045D01*
X89282403Y-97988170D01*
X89506329Y-97859747D01*
X89522618Y-97828198D01*
X89470145Y-97716687D01*
X89242416Y-97727204D01*
X88943670Y-97859747D01*
X88889585Y-97896210D01*
X88825422Y-97992488D01*
X83608317Y-97992488D01*
X83644902Y-97673947D01*
X83740727Y-96711838D01*
X83758604Y-96502779D01*
X86371519Y-96502779D01*
X86375698Y-96518822D01*
X86532278Y-96573671D01*
X86576340Y-96567129D01*
X86693038Y-96403424D01*
X86680415Y-96345277D01*
X86532278Y-96332532D01*
X86484169Y-96365527D01*
X86371519Y-96502779D01*
X83758604Y-96502779D01*
X83826469Y-95709118D01*
X83851698Y-95349306D01*
X89480575Y-95349306D01*
X89567733Y-95448354D01*
X89614887Y-95442353D01*
X89704034Y-95377570D01*
X89827848Y-95287595D01*
X89853601Y-95225884D01*
X89766443Y-95126835D01*
X89719289Y-95132837D01*
X89506329Y-95287595D01*
X89480575Y-95349306D01*
X83851698Y-95349306D01*
X83895704Y-94721705D01*
X84155232Y-94721705D01*
X84174472Y-94912489D01*
X84201265Y-94926425D01*
X84222826Y-94937640D01*
X84281645Y-94805316D01*
X84270043Y-94720211D01*
X84174472Y-94698143D01*
X84155232Y-94721705D01*
X83895704Y-94721705D01*
X83895816Y-94720114D01*
X83948303Y-93863173D01*
X87098931Y-93863173D01*
X87116102Y-93987927D01*
X87325380Y-93927749D01*
X87378524Y-93886449D01*
X87496835Y-93650828D01*
X87453947Y-93579553D01*
X87251811Y-93683224D01*
X87098931Y-93863173D01*
X83948303Y-93863173D01*
X83974490Y-93435629D01*
X85280549Y-93435629D01*
X85299789Y-93626413D01*
X85348142Y-93651564D01*
X85406962Y-93519240D01*
X85395360Y-93434135D01*
X85299789Y-93412067D01*
X85280549Y-93435629D01*
X83974490Y-93435629D01*
X84003831Y-92956582D01*
X89265189Y-92956582D01*
X89345569Y-93036962D01*
X89425949Y-92956582D01*
X89345569Y-92876202D01*
X89265189Y-92956582D01*
X84003831Y-92956582D01*
X84004422Y-92946937D01*
X83589605Y-92467654D01*
X86602030Y-92467654D01*
X86718649Y-92516044D01*
X86723071Y-92517879D01*
X86736943Y-92512896D01*
X86924080Y-92359064D01*
X86989686Y-92166791D01*
X86884393Y-92072405D01*
X86794016Y-92105860D01*
X86629748Y-92326977D01*
X86602030Y-92467654D01*
X83589605Y-92467654D01*
X83456224Y-92313544D01*
X84442405Y-92313544D01*
X84522784Y-92393924D01*
X84603164Y-92313544D01*
X84522784Y-92233164D01*
X84442405Y-92313544D01*
X83456224Y-92313544D01*
X83378214Y-92223410D01*
X83022667Y-91798809D01*
X82350896Y-90919553D01*
X82315048Y-90866709D01*
X89265189Y-90866709D01*
X89345569Y-90947088D01*
X89425949Y-90866709D01*
X89345569Y-90786329D01*
X89265189Y-90866709D01*
X82315048Y-90866709D01*
X81755848Y-90042384D01*
X81386178Y-89416642D01*
X87209663Y-89416642D01*
X87228903Y-89607426D01*
X87277256Y-89632576D01*
X87336076Y-89500253D01*
X87324474Y-89415147D01*
X87228903Y-89393080D01*
X87209663Y-89416642D01*
X81386178Y-89416642D01*
X81273249Y-89225487D01*
X81056879Y-88773604D01*
X85762827Y-88773604D01*
X85782067Y-88964388D01*
X85830421Y-88989538D01*
X85889240Y-88857215D01*
X85877638Y-88772110D01*
X85782067Y-88750042D01*
X85762827Y-88773604D01*
X81056879Y-88773604D01*
X80938822Y-88527045D01*
X80788291Y-88005241D01*
X80785733Y-87982199D01*
X80768739Y-87551240D01*
X80864875Y-87261547D01*
X81126187Y-87074966D01*
X81604724Y-86953341D01*
X82352531Y-86858517D01*
X82797983Y-86804950D01*
X83195049Y-86714194D01*
X83532053Y-86547284D01*
X83905051Y-86254077D01*
X84174472Y-86003541D01*
X84410102Y-85784427D01*
X84522784Y-85670203D01*
X84683544Y-85507243D01*
X84922798Y-85264715D01*
X84941910Y-85240126D01*
X86532278Y-85240126D01*
X86612658Y-85320506D01*
X86693038Y-85240126D01*
X86612658Y-85159747D01*
X86532278Y-85240126D01*
X84941910Y-85240126D01*
X85267007Y-84821875D01*
X85299789Y-84706306D01*
X85344802Y-84547617D01*
X85320025Y-84415936D01*
X85269202Y-83991085D01*
X85222348Y-83481260D01*
X85567721Y-83481260D01*
X85590854Y-83596087D01*
X85728481Y-83632532D01*
X85772384Y-83599627D01*
X85782067Y-83581586D01*
X85889240Y-83381905D01*
X85884639Y-83346014D01*
X85728481Y-83230633D01*
X85651654Y-83261306D01*
X85567721Y-83481260D01*
X85222348Y-83481260D01*
X85213079Y-83380405D01*
X85159925Y-82667975D01*
X85118943Y-82212489D01*
X86907384Y-82212489D01*
X86930946Y-82231729D01*
X87094936Y-82215191D01*
X87121730Y-82212489D01*
X87146880Y-82164136D01*
X87014557Y-82105316D01*
X86929451Y-82116918D01*
X86907384Y-82212489D01*
X85118943Y-82212489D01*
X85087307Y-81860881D01*
X84958328Y-81103712D01*
X84789833Y-80658481D01*
X84746899Y-80592832D01*
X84486102Y-80185690D01*
X85085443Y-80185690D01*
X85098065Y-80243836D01*
X85246202Y-80256582D01*
X85294312Y-80223587D01*
X85406962Y-80086335D01*
X85402782Y-80070292D01*
X85246202Y-80015443D01*
X85202140Y-80021985D01*
X85085443Y-80185690D01*
X84486102Y-80185690D01*
X84281411Y-79866137D01*
X84215784Y-79755635D01*
X87069183Y-79755635D01*
X87156341Y-79854683D01*
X87203495Y-79848682D01*
X87228903Y-79830218D01*
X87416455Y-79693924D01*
X87442209Y-79632213D01*
X87355051Y-79533164D01*
X87307897Y-79539166D01*
X87094936Y-79693924D01*
X87069183Y-79755635D01*
X84215784Y-79755635D01*
X83996710Y-79386764D01*
X83885940Y-79142271D01*
X83942246Y-79120215D01*
X84033182Y-79145069D01*
X84021465Y-78978856D01*
X83957794Y-78857418D01*
X83791622Y-78729367D01*
X83635908Y-78639317D01*
X83587662Y-78599310D01*
X87829653Y-78599310D01*
X87844068Y-78741976D01*
X87979113Y-78970506D01*
X88099718Y-79033377D01*
X88103587Y-78952589D01*
X87979113Y-78648987D01*
X87946736Y-78575567D01*
X87859121Y-78442416D01*
X87829653Y-78599310D01*
X83587662Y-78599310D01*
X83318538Y-78376147D01*
X82918156Y-78000472D01*
X82538908Y-77659307D01*
X82205560Y-77423945D01*
X82017576Y-77371216D01*
X81959463Y-77382875D01*
X81681189Y-77289773D01*
X81311373Y-77055174D01*
X81177033Y-76956185D01*
X80824926Y-76729872D01*
X80608300Y-76639494D01*
X80580585Y-76637653D01*
X80396624Y-76513622D01*
X80300547Y-76404489D01*
X79981382Y-76180262D01*
X79555626Y-75941035D01*
X79138899Y-75749782D01*
X78846823Y-75669482D01*
X78762703Y-75659078D01*
X78389384Y-75547196D01*
X77931645Y-75353418D01*
X77677351Y-75240370D01*
X76969160Y-75050228D01*
X76412277Y-75105561D01*
X76035810Y-75405569D01*
X75790972Y-75779239D01*
X74369536Y-75488650D01*
X74112460Y-75437530D01*
X73428603Y-75314631D01*
X72851290Y-75228529D01*
X72484257Y-75195359D01*
X72117495Y-75117541D01*
X71647945Y-74790759D01*
X71282572Y-74508346D01*
X70705144Y-74388861D01*
X70624759Y-74390385D01*
X70276291Y-74441217D01*
X70134810Y-74541703D01*
X70043815Y-74602446D01*
X69701090Y-74639292D01*
X69174890Y-74623986D01*
X68812784Y-74601880D01*
X68409191Y-74611041D01*
X68182470Y-74694917D01*
X68043918Y-74873042D01*
X67988330Y-74961347D01*
X67861391Y-75066205D01*
X67638303Y-75133454D01*
X67262736Y-75171158D01*
X66678358Y-75187384D01*
X65828837Y-75190196D01*
X65748000Y-75190002D01*
X64964884Y-75177850D01*
X64298130Y-75149899D01*
X63816116Y-75110053D01*
X63587217Y-75062214D01*
X63584389Y-75035593D01*
X63788117Y-74943810D01*
X64246888Y-74816455D01*
X64917680Y-74664681D01*
X65757471Y-74499641D01*
X67485004Y-74209214D01*
X70570660Y-73848624D01*
X73497988Y-73726779D01*
X76304937Y-73844394D01*
G37*
G36*
X76069513Y-65261252D02*
G01*
X76349739Y-65398340D01*
X76420948Y-65459591D01*
X76464546Y-65555323D01*
X76456448Y-65715063D01*
X76400987Y-65988693D01*
X76294657Y-66463824D01*
X75940619Y-66285862D01*
X75819868Y-66222391D01*
X75478165Y-65991313D01*
X75304316Y-65766264D01*
X75297325Y-65545271D01*
X75456195Y-65326360D01*
X75521372Y-65280654D01*
X75772498Y-65220340D01*
X76069513Y-65261252D01*
G37*
G36*
X76451435Y-63805356D02*
G01*
X76751112Y-63833184D01*
X76904977Y-63915602D01*
X76932146Y-64075819D01*
X76851738Y-64337045D01*
X76808406Y-64436282D01*
X76704628Y-64616764D01*
X76622547Y-64688296D01*
X76593037Y-64681929D01*
X76443864Y-64604935D01*
X76245889Y-64468620D01*
X76135776Y-64377825D01*
X76004541Y-64208255D01*
X75983897Y-64024120D01*
X75995614Y-63945853D01*
X76044923Y-63848383D01*
X76168304Y-63809418D01*
X76413241Y-63804689D01*
X76451435Y-63805356D01*
G37*
G36*
X98576937Y-63151160D02*
G01*
X98753092Y-63359021D01*
X99007095Y-63708619D01*
X99172249Y-63950497D01*
X99343673Y-64215943D01*
X99453270Y-64404109D01*
X99482576Y-64484856D01*
X99457133Y-64498517D01*
X99304911Y-64544429D01*
X99072107Y-64596276D01*
X98970825Y-64614793D01*
X98745325Y-64646489D01*
X98615914Y-64650537D01*
X98578523Y-64589243D01*
X98531543Y-64398050D01*
X98487435Y-64122331D01*
X98451365Y-63808407D01*
X98428501Y-63502600D01*
X98424009Y-63251232D01*
X98443054Y-63100625D01*
X98473294Y-63079281D01*
X98576937Y-63151160D01*
G37*
G36*
X110280857Y-65425683D02*
G01*
X110411605Y-65864198D01*
X110542566Y-66318078D01*
X110626627Y-66618817D01*
X110665467Y-66757770D01*
X110772035Y-67153720D01*
X110853995Y-67476372D01*
X110903075Y-67696174D01*
X110911001Y-67783571D01*
X110846541Y-67782504D01*
X110655226Y-67764065D01*
X110384581Y-67731524D01*
X110080136Y-67696606D01*
X109479193Y-67653847D01*
X108851163Y-67645475D01*
X108184070Y-67673705D01*
X107465941Y-67740754D01*
X106684799Y-67848836D01*
X105828671Y-68000168D01*
X104885581Y-68196966D01*
X103843554Y-68441445D01*
X102690615Y-68735821D01*
X102283848Y-68846291D01*
X101414790Y-69082310D01*
X100004104Y-69483128D01*
X98446581Y-69940490D01*
X98052097Y-70057274D01*
X96769802Y-70427525D01*
X95617614Y-70743936D01*
X94573822Y-71011920D01*
X93616717Y-71236892D01*
X92724588Y-71424269D01*
X91875725Y-71579466D01*
X91669170Y-71613269D01*
X90989367Y-71713502D01*
X90231377Y-71812107D01*
X89444200Y-71903602D01*
X88676841Y-71982502D01*
X87978300Y-72043324D01*
X87397581Y-72080585D01*
X87322025Y-72084041D01*
X86529577Y-72111061D01*
X85769902Y-72121002D01*
X85076952Y-72114159D01*
X84484682Y-72090828D01*
X84027044Y-72051303D01*
X83653414Y-71997681D01*
X82447770Y-71741986D01*
X81167162Y-71353457D01*
X79826626Y-70837690D01*
X78441198Y-70200276D01*
X77025914Y-69446810D01*
X76903985Y-69376856D01*
X76205813Y-68955757D01*
X75756963Y-68668656D01*
X80624248Y-68668656D01*
X80635448Y-68743034D01*
X80743023Y-68893848D01*
X80976391Y-69034574D01*
X81349920Y-69172625D01*
X81877978Y-69315412D01*
X82348877Y-69419859D01*
X82838015Y-69496208D01*
X83185752Y-69503745D01*
X83399379Y-69443082D01*
X83442077Y-69370447D01*
X83448518Y-69346895D01*
X84331089Y-69346895D01*
X84373062Y-69592186D01*
X84532092Y-69818635D01*
X84833695Y-69993078D01*
X85082039Y-70070020D01*
X85523929Y-70110924D01*
X85956251Y-70051833D01*
X86312502Y-69897062D01*
X86513935Y-69722491D01*
X86787291Y-69330536D01*
X86994451Y-68824269D01*
X87127529Y-68232212D01*
X87178636Y-67582890D01*
X87139887Y-66904827D01*
X87088053Y-66569356D01*
X86944751Y-66032383D01*
X86735713Y-65629954D01*
X86449881Y-65343893D01*
X86176774Y-65206587D01*
X89476806Y-65206587D01*
X89585740Y-65504756D01*
X89811441Y-65878230D01*
X90151147Y-66316721D01*
X90254805Y-66439421D01*
X90467750Y-66698314D01*
X90591660Y-66872447D01*
X90642129Y-66993764D01*
X90634748Y-67094208D01*
X90585111Y-67205721D01*
X90501550Y-67389960D01*
X90430312Y-67582890D01*
X90368720Y-67749694D01*
X90239480Y-68163780D01*
X90128725Y-68579352D01*
X90051350Y-68943545D01*
X90022248Y-69203494D01*
X90024372Y-69270491D01*
X90069236Y-69543911D01*
X90154049Y-69749457D01*
X90290388Y-69876245D01*
X90561200Y-69937629D01*
X90722030Y-69929572D01*
X90897978Y-69879092D01*
X91031656Y-69760368D01*
X91139367Y-69548518D01*
X91237417Y-69218659D01*
X91342109Y-68745911D01*
X91349519Y-68709823D01*
X91450707Y-68219263D01*
X91525895Y-67869300D01*
X91582869Y-67636198D01*
X91629413Y-67496217D01*
X91673314Y-67425621D01*
X91722357Y-67400671D01*
X91784328Y-67397629D01*
X91859248Y-67422337D01*
X91972907Y-67569065D01*
X92093265Y-67864666D01*
X92271433Y-68263864D01*
X92536607Y-68655681D01*
X92846702Y-68971969D01*
X93172400Y-69183312D01*
X93484380Y-69260296D01*
X93622636Y-69234054D01*
X93746617Y-69094880D01*
X93760910Y-68846291D01*
X93665741Y-68500003D01*
X93461336Y-68067733D01*
X93233280Y-67629728D01*
X92994709Y-67078788D01*
X92821748Y-66525462D01*
X92697951Y-65914361D01*
X92606871Y-65190099D01*
X92595020Y-65075385D01*
X92544429Y-64645107D01*
X92491609Y-64274563D01*
X92442154Y-64000076D01*
X92401661Y-63857972D01*
X92375437Y-63814656D01*
X92344145Y-63789659D01*
X93384028Y-63789659D01*
X93390551Y-63945067D01*
X93480812Y-64204802D01*
X93658051Y-64329832D01*
X93900491Y-64310704D01*
X94186355Y-64137963D01*
X94329277Y-64022095D01*
X94478502Y-63943402D01*
X94612522Y-63971921D01*
X94797303Y-64103982D01*
X94996270Y-64306934D01*
X95245177Y-64705754D01*
X95453013Y-65207805D01*
X95607743Y-65775450D01*
X95697328Y-66371053D01*
X95709734Y-66956978D01*
X95691931Y-67086666D01*
X95547755Y-67382414D01*
X95286983Y-67579795D01*
X94939742Y-67651629D01*
X94828379Y-67655023D01*
X94622569Y-67704085D01*
X94505361Y-67828848D01*
X94502093Y-67835049D01*
X94447755Y-68104206D01*
X94547063Y-68365915D01*
X94787020Y-68585272D01*
X94795855Y-68590599D01*
X95179666Y-68728080D01*
X95590753Y-68722738D01*
X95991103Y-68587276D01*
X96342702Y-68334399D01*
X96607539Y-67976813D01*
X96790285Y-67501083D01*
X96900582Y-66849008D01*
X96895733Y-66131910D01*
X96776347Y-65381317D01*
X96543031Y-64628755D01*
X96536859Y-64612999D01*
X96228931Y-63949238D01*
X95885513Y-63444400D01*
X95759943Y-63329748D01*
X97531936Y-63329748D01*
X97553303Y-63977111D01*
X97615218Y-64666118D01*
X97717568Y-65365629D01*
X97756845Y-65583860D01*
X97880359Y-66202297D01*
X97999823Y-66680681D01*
X98057055Y-66849008D01*
X98122362Y-67041083D01*
X98255097Y-67305574D01*
X98405152Y-67496225D01*
X98435330Y-67524522D01*
X98665388Y-67666403D01*
X98923656Y-67738566D01*
X99154295Y-67732158D01*
X99301469Y-67638326D01*
X99325319Y-67587009D01*
X99351147Y-67331052D01*
X99297959Y-66964577D01*
X99169095Y-66515904D01*
X99090029Y-66277071D01*
X99031990Y-66080064D01*
X99017862Y-65997959D01*
X99082816Y-65984697D01*
X99275403Y-65959656D01*
X99547248Y-65930443D01*
X100055248Y-65880147D01*
X100309248Y-66279055D01*
X100402164Y-66409699D01*
X100640583Y-66668274D01*
X100878342Y-66846678D01*
X100954358Y-66886877D01*
X101126614Y-66962173D01*
X101233296Y-66956356D01*
X101335872Y-66872958D01*
X101404582Y-66786439D01*
X101458285Y-66618817D01*
X101438275Y-66396335D01*
X101338838Y-66097935D01*
X101154258Y-65702559D01*
X100878817Y-65189148D01*
X100627588Y-64734450D01*
X100331519Y-64191889D01*
X100044392Y-63659782D01*
X99803365Y-63206629D01*
X99641169Y-62900363D01*
X99392897Y-62446424D01*
X99193461Y-62111111D01*
X99026783Y-61872556D01*
X98876789Y-61708891D01*
X98727402Y-61598248D01*
X98562546Y-61518759D01*
X98425979Y-61479812D01*
X101075217Y-61479812D01*
X101101636Y-61697447D01*
X101166936Y-62010376D01*
X101275275Y-62452264D01*
X101275668Y-62453813D01*
X101417427Y-62989525D01*
X101578068Y-63558169D01*
X101748628Y-64131673D01*
X101920147Y-64681968D01*
X102083661Y-65180986D01*
X102230211Y-65600655D01*
X102350833Y-65912906D01*
X102436566Y-66089670D01*
X102591768Y-66265148D01*
X102815283Y-66428290D01*
X103039318Y-66520154D01*
X103303897Y-66531186D01*
X103513459Y-66396129D01*
X103521127Y-66387521D01*
X103602886Y-66262117D01*
X103641317Y-66100370D01*
X103635886Y-65870587D01*
X103586061Y-65541074D01*
X103491307Y-65080139D01*
X103329032Y-64337560D01*
X103681807Y-64187102D01*
X103798797Y-64138283D01*
X104119112Y-64014558D01*
X104403968Y-63917290D01*
X104613154Y-63859537D01*
X104706457Y-63854358D01*
X104722174Y-63878874D01*
X104805406Y-64021789D01*
X104941109Y-64260835D01*
X105109490Y-64561296D01*
X105138420Y-64612975D01*
X105334450Y-64942029D01*
X105499473Y-65162141D01*
X105668544Y-65313243D01*
X105876718Y-65435267D01*
X106132148Y-65549579D01*
X106303648Y-65580058D01*
X106445731Y-65535952D01*
X106507777Y-65498636D01*
X106660844Y-65338229D01*
X106731350Y-65107479D01*
X106719320Y-64786999D01*
X106624774Y-64357400D01*
X106447736Y-63799296D01*
X106431266Y-63750862D01*
X106320763Y-63392744D01*
X106188948Y-62923699D01*
X106047835Y-62390144D01*
X105909435Y-61838498D01*
X105785759Y-61315176D01*
X105688820Y-60866598D01*
X105682887Y-60837754D01*
X105560625Y-60444885D01*
X105384397Y-60205154D01*
X105141388Y-60107891D01*
X104818778Y-60142427D01*
X104799906Y-60147769D01*
X104543466Y-60312262D01*
X104358457Y-60626817D01*
X104246447Y-61087456D01*
X104209002Y-61690201D01*
X104209415Y-62459774D01*
X103737658Y-62642701D01*
X103523685Y-62722435D01*
X103301574Y-62796889D01*
X103182964Y-62825629D01*
X103138132Y-62784659D01*
X103032098Y-62617599D01*
X102890003Y-62351583D01*
X102729945Y-62018844D01*
X102700795Y-61955933D01*
X102425128Y-61430695D01*
X102162182Y-61066402D01*
X101904354Y-60856641D01*
X101644037Y-60794998D01*
X101373627Y-60875060D01*
X101240979Y-60998473D01*
X101120527Y-61200195D01*
X101083516Y-61323809D01*
X101075217Y-61479812D01*
X98425979Y-61479812D01*
X98300159Y-61443930D01*
X98069203Y-61474764D01*
X97880642Y-61643339D01*
X97704918Y-61965037D01*
X97611315Y-62284512D01*
X97551235Y-62755168D01*
X97531936Y-63329748D01*
X95759943Y-63329748D01*
X95497713Y-63090318D01*
X95056636Y-62878826D01*
X94553390Y-62801756D01*
X94455821Y-62802284D01*
X94024390Y-62884349D01*
X93689398Y-63086869D01*
X93469669Y-63393940D01*
X93384028Y-63789659D01*
X92344145Y-63789659D01*
X92188813Y-63665575D01*
X91951492Y-63646976D01*
X91704559Y-63753394D01*
X91591110Y-63872375D01*
X91489095Y-63979364D01*
X91422608Y-64118737D01*
X91351536Y-64486431D01*
X91348061Y-64803778D01*
X91346042Y-64988191D01*
X91406861Y-65609464D01*
X91470332Y-66064965D01*
X90936790Y-65602721D01*
X90909451Y-65579058D01*
X90547741Y-65272967D01*
X90279353Y-65065169D01*
X90076805Y-64938275D01*
X89912609Y-64874892D01*
X89759284Y-64857629D01*
X89620298Y-64877332D01*
X89487404Y-64994016D01*
X89476806Y-65206587D01*
X86176774Y-65206587D01*
X86076202Y-65156024D01*
X86072080Y-65154618D01*
X85701978Y-65104836D01*
X85350411Y-65188436D01*
X85053979Y-65381661D01*
X85016184Y-65433192D01*
X84849280Y-65660756D01*
X84772914Y-66001965D01*
X84782951Y-66176544D01*
X84842271Y-66275200D01*
X84987560Y-66296963D01*
X85183067Y-66261942D01*
X85414362Y-66157952D01*
X85501306Y-66110396D01*
X85746928Y-66082691D01*
X85971632Y-66218503D01*
X86166635Y-66513676D01*
X86199651Y-66591186D01*
X86289763Y-66990749D01*
X86295265Y-67449084D01*
X86225428Y-67921446D01*
X86089523Y-68363088D01*
X85896823Y-68729265D01*
X85656597Y-68975232D01*
X85579035Y-69022151D01*
X85437765Y-69070313D01*
X85257829Y-69063581D01*
X84977602Y-69004622D01*
X84959317Y-69000271D01*
X84638678Y-68945527D01*
X84444573Y-68975795D01*
X84350783Y-69104958D01*
X84331089Y-69346895D01*
X83448518Y-69346895D01*
X83504304Y-69142921D01*
X83569210Y-68786109D01*
X83632115Y-68322545D01*
X83674899Y-67966391D01*
X83744303Y-67402909D01*
X83814499Y-66846572D01*
X83875413Y-66377919D01*
X83908309Y-66105519D01*
X83942516Y-65732894D01*
X83957402Y-65433192D01*
X83949841Y-65253646D01*
X83929401Y-65178823D01*
X83804539Y-64973206D01*
X83626874Y-64843211D01*
X83447730Y-64831943D01*
X83301350Y-64967761D01*
X83160927Y-65257182D01*
X83033811Y-65681844D01*
X82924191Y-66224561D01*
X82836255Y-66868144D01*
X82774193Y-67595407D01*
X82768404Y-67685352D01*
X82735652Y-68087142D01*
X82697738Y-68350117D01*
X82649649Y-68500100D01*
X82586371Y-68562914D01*
X82547659Y-68569739D01*
X82355744Y-68562561D01*
X82063601Y-68525457D01*
X81717427Y-68463702D01*
X81488169Y-68420931D01*
X81087061Y-68375248D01*
X80819657Y-68399380D01*
X80670529Y-68496218D01*
X80624248Y-68668656D01*
X75756963Y-68668656D01*
X75418517Y-68452173D01*
X74575181Y-67889291D01*
X73708892Y-67290295D01*
X72852736Y-66678372D01*
X72039797Y-66076706D01*
X71542234Y-65692898D01*
X74612914Y-65692898D01*
X74613949Y-65737778D01*
X74713890Y-66125417D01*
X74969206Y-66476476D01*
X75368863Y-66779568D01*
X75901827Y-67023302D01*
X75950295Y-67039425D01*
X76262115Y-67113513D01*
X76550501Y-67143629D01*
X76858130Y-67143629D01*
X77046400Y-66445129D01*
X77067706Y-66367625D01*
X78016187Y-66367625D01*
X78016440Y-66988268D01*
X78101457Y-67510487D01*
X78269106Y-67917055D01*
X78517258Y-68190744D01*
X78546097Y-68208954D01*
X78807331Y-68294135D01*
X79151812Y-68323332D01*
X79512938Y-68295568D01*
X79824112Y-68209871D01*
X79851311Y-68197620D01*
X80133508Y-68009892D01*
X80374039Y-67718683D01*
X80587270Y-67302045D01*
X80787570Y-66738028D01*
X80805510Y-66679641D01*
X81001144Y-66017991D01*
X81136919Y-65496038D01*
X81214086Y-65096921D01*
X81233896Y-64803778D01*
X81197600Y-64599747D01*
X81106450Y-64467967D01*
X80961697Y-64391576D01*
X80810705Y-64378094D01*
X80625010Y-64487757D01*
X80465608Y-64753370D01*
X80327434Y-65181240D01*
X80156587Y-65846643D01*
X80005439Y-66404653D01*
X79877580Y-66830358D01*
X79766023Y-67140691D01*
X79663781Y-67352584D01*
X79563867Y-67482972D01*
X79459295Y-67548787D01*
X79343077Y-67566963D01*
X79192768Y-67502892D01*
X79043943Y-67345855D01*
X79040783Y-67341013D01*
X78978688Y-67226815D01*
X78945252Y-67095730D01*
X78939104Y-66910045D01*
X78958876Y-66632047D01*
X79003196Y-66224022D01*
X79034696Y-65970599D01*
X79095978Y-65546890D01*
X79159855Y-65173260D01*
X79216712Y-64908927D01*
X79267916Y-64666219D01*
X79279427Y-64323126D01*
X79198631Y-64091120D01*
X79032293Y-63984258D01*
X78787181Y-64016599D01*
X78755522Y-64030169D01*
X78588075Y-64168567D01*
X78439537Y-64422709D01*
X78301598Y-64810421D01*
X78165951Y-65349533D01*
X78102827Y-65665785D01*
X78016187Y-66367625D01*
X77067706Y-66367625D01*
X77107509Y-66222840D01*
X77235498Y-65772064D01*
X77379789Y-65277038D01*
X77519285Y-64810682D01*
X77565747Y-64655085D01*
X77689443Y-64191003D01*
X77745836Y-63872375D01*
X77736316Y-63692041D01*
X77658821Y-63587195D01*
X77455068Y-63424218D01*
X77175854Y-63260542D01*
X77158046Y-63251580D01*
X76605993Y-63007369D01*
X76159885Y-62885475D01*
X75808931Y-62885855D01*
X75542339Y-63008467D01*
X75349314Y-63253266D01*
X75271257Y-63452722D01*
X75239333Y-63839960D01*
X75333816Y-64312299D01*
X75335666Y-64318609D01*
X75328452Y-64471131D01*
X75179713Y-64580722D01*
X75133350Y-64607032D01*
X74950326Y-64795493D01*
X74782727Y-65078244D01*
X74660331Y-65396856D01*
X74612914Y-65692898D01*
X71542234Y-65692898D01*
X71303161Y-65508483D01*
X70675914Y-64996890D01*
X70290670Y-64669077D01*
X69700564Y-64159700D01*
X69204216Y-63721415D01*
X68809256Y-63361240D01*
X68523314Y-63086193D01*
X68354019Y-62903294D01*
X68309000Y-62819559D01*
X68340722Y-62806894D01*
X68518701Y-62785307D01*
X68833349Y-62767114D01*
X69263391Y-62753123D01*
X69787558Y-62744137D01*
X70384578Y-62740963D01*
X70777572Y-62739969D01*
X71304040Y-62735235D01*
X71753840Y-62727139D01*
X72103808Y-62716278D01*
X72330777Y-62703250D01*
X72411581Y-62688654D01*
X72397582Y-62652435D01*
X72318144Y-62484881D01*
X72177966Y-62201823D01*
X71987889Y-61824861D01*
X71758758Y-61375591D01*
X71501414Y-60875613D01*
X71342030Y-60564356D01*
X71106492Y-60092350D01*
X70909950Y-59683353D01*
X70762458Y-59359030D01*
X70674067Y-59141045D01*
X70654829Y-59051062D01*
X70715010Y-59045168D01*
X70888343Y-59102002D01*
X71120496Y-59219157D01*
X71227126Y-59278369D01*
X71513052Y-59429260D01*
X71893778Y-59624196D01*
X72332542Y-59844444D01*
X72792581Y-60071269D01*
X73918713Y-60591716D01*
X75777132Y-61325717D01*
X77648131Y-61913788D01*
X79521431Y-62354878D01*
X81386753Y-62647935D01*
X83233818Y-62791906D01*
X85052345Y-62785741D01*
X86832057Y-62628387D01*
X88562673Y-62318793D01*
X90233914Y-61855906D01*
X90530111Y-61753114D01*
X91059097Y-61554164D01*
X91651728Y-61317456D01*
X92255084Y-61064300D01*
X92816248Y-60816007D01*
X94307361Y-60159715D01*
X95913660Y-59517751D01*
X97424375Y-58989519D01*
X98852308Y-58571724D01*
X100210259Y-58261070D01*
X101511032Y-58054261D01*
X102767427Y-57948002D01*
X103992248Y-57938998D01*
X104505029Y-57958796D01*
X105057222Y-57994524D01*
X105524585Y-58048470D01*
X105954829Y-58128121D01*
X106395665Y-58240964D01*
X106894802Y-58394486D01*
X107553689Y-58608014D01*
X107814190Y-59171655D01*
X107841105Y-59229998D01*
X108416062Y-60525014D01*
X108993785Y-61913002D01*
X109546015Y-63324062D01*
X110044493Y-64688296D01*
X110053097Y-64712965D01*
X110158597Y-65032087D01*
X110182015Y-65107479D01*
X110280857Y-65425683D01*
G37*
%TD*%
M02*
